<mxfile host="app.diagrams.net" agent="Mozilla/5.0 (Windows NT 10.0; Win64; x64) AppleWebKit/537.36 (KHTML, like Gecko) Chrome/135.0.0.0 Safari/537.36" version="26.2.13">
  <diagram name="Cluster Segregado AS-IS" id="ZG-9A_FGA8ur4kyhW3vu">
    <mxGraphModel dx="2255" dy="1912" grid="1" gridSize="10" guides="1" tooltips="1" connect="1" arrows="1" fold="1" page="1" pageScale="1" pageWidth="827" pageHeight="1169" math="0" shadow="0">
      <root>
        <mxCell id="gIQvh4hmUggV0KQkSDBD-0" />
        <mxCell id="gIQvh4hmUggV0KQkSDBD-1" parent="gIQvh4hmUggV0KQkSDBD-0" />
        <mxCell id="gIQvh4hmUggV0KQkSDBD-2" value="DC Corporativo&amp;nbsp;&lt;div&gt;On-Premises&lt;/div&gt;" style="sketch=0;outlineConnect=0;html=1;whiteSpace=wrap;fontSize=12;fontStyle=0;shape=mxgraph.aws4.group;grIcon=mxgraph.aws4.group_on_premise;strokeColor=#000000;fillColor=#dae8fc;verticalAlign=top;align=left;spacingLeft=30;dashed=0;" parent="gIQvh4hmUggV0KQkSDBD-1" vertex="1">
          <mxGeometry x="30" y="-300" width="750" height="850" as="geometry" />
        </mxCell>
        <mxCell id="gIQvh4hmUggV0KQkSDBD-3" value="" style="rounded=0;whiteSpace=wrap;html=1;fillColor=#dae8fc;strokeColor=#6c8ebf;gradientColor=#7ea6e0;" parent="gIQvh4hmUggV0KQkSDBD-1" vertex="1">
          <mxGeometry x="40" y="-80" width="720" height="340" as="geometry" />
        </mxCell>
        <mxCell id="gIQvh4hmUggV0KQkSDBD-4" value="" style="shape=image;verticalLabelPosition=bottom;labelBackgroundColor=default;verticalAlign=top;aspect=fixed;imageAspect=0;image=data:image/png,iVBORw0KGgoAAAANSUhEUgAAATsAAACgCAMAAABE1DvBAAAAqFBMVEX///8AdahZWVtKSk1OTlAAb6Xl5eX19fVSUlRMTE9WVlgAaaGenp8AbaTu7u680eDHx8jV1dWqqqrv9vlxcXP3+/y0tLVFRUiPts+BgYPh6vHc3N2gwNWnxdi+vr4qf65nZ2mVlZZvosNgYGJ/f4B3d3iLi4zNzc43hrKcnJ3F2OXP3+oAZaAtgq9cmL05OTyArckAX51VlLpnn8F5qMba5u5GjbY0NDcm/kpdAAANHklEQVR4nO2c6XqbyBKGWSVAi4U2rMhWpGizE9nJ8WQy939nh0WCqupugRsEaKa/HzN5DPTyUtVVvSBNuy/9+ShbwqM+qaIh96ffdu97uRImJ/ulmrbcmSYn3f5drohnW+/9qKY196UnW9e/liviL1u3/6qmNfelF13Xe+WKeCtfxF1q1os6Xm6oDy1XH/wHnfZHzO5LqTIGYRH2U0UNuiNFw10l7L5V1KA70m+7vM9G7PS3ihpUpb682wO7eunfEl5RqIjMpqheOL4ZsxvUzKWAfpxs/SayE0ftffa5gc1EhZhdSb+/haqHliqaC0w+zU7XTwReHKr1QcnJSfX6dSOrixmElvJ9IPGgPUNtTMpoXaD9+1QxL6goJXuSeTf2I2rke1xG6wLt14pxIUUj1G8pu0ZzuB9nt29ZoL2lxyaR8UXqSTgB+2Jz/ti8buqxSayQezm9bMB7SAfMdgXam3psvPIkE2b1mN3sIdLj1yzWtCrQPsrEwOKKAqNUmI3ZTf43CAXNtk2B9oucTRRWZCdSYTZhx7SuTYH2rTSdHADhpOyxSnbvTRNLdWOPTeLiv9Pubu2xSZiVjORcdoPnppld9HLT1E7Xzxs8f6Sq4dtd08guerq1x57D4sSWgcdjR1cIGpNk3vUZ2YmLTT5OZHlwkF93nKPgZ97+bhhZqj83R5cN7ZOHJ6jn7/lDbZQb44daQ057vr3ZXVloz59F92aCR5tXDR4biw/vqZDPtlU1eGyC4Nszo6e3AlGqvexq8dhY3E2gAmotO+Sxt87y5NRadh+Al/2tlfDayu4hMztbnzzcPEeWUUvZzTJD633AZdk2qaXs3lN2p2g3SrH7hFKPTQ5lKXaf0HnHzn5LElfF7jOKs7ve5QhqE+zyQ3tb2Wm/BvopXUZsgN3gV+6mbWvZheEiW5Won539nr+32V52UPWzC7kodnKKluIVOzkNHhQ7WQ3+VuxkFZ3IUezk1FN2Jy3FTl6KnbwUO3kpdvJS7OSl2MlLsZNXxC73xKlix8cSssvd2Cz5+wI1qZE5WV6l5JuotqqRtYC8AW9wFy7bALvoC5PrJ/BOD01TKab61z5/RdV+0YX12r07QVeInT0oIxoXzt+uP731uPr6eDc//ZTPztYfH0ro+Tfxz+wziRlPTcL4pHLZlf+aZkIN7z6iaL5y2VWQatHIMPho1dec0spjV8nHNB+01N7Lr0eoe/LUTLnsqjicz/kiDx2jPd1NeEDKY1fJx9J5XzOW/NmepqTYyUuxk5diJy/FTl6KnbwUO3kpdvJS7OSl2MlLsZOXYicvxU5eip28FDt5KXbyUuzkpdjJ63vOb1ZU0q3nPHYV1NGAZtfZ2ZX8MO7k+i+5tehHAT+nh6v96lXzO0yP196QPbhPlw31/euJf7qh1zv9qWoj9UEX1dE7vd8tulCziUBVViKq457BKSkpKSkpKSkpKSkpKSkpKSkpKf1XNOsOh92WfmkyTP7X4WuY12p0N3vzEF3v0suzK9c0zR8ftuZZ28X4SIpHRZNHu6gTpCqRuuQ5WgTR67Q/3UT/+GkK5O3HvhhdFz4XzJnr/QBeX9DLy/TxnyNyabQzXcfzjLM8z3HNHbxpCKoO1uTpI7wYd7Aj7GHahFX4uoR3bQ9z/IL6886oO++H/7IMkcJGW32OVcRawec82gNNGzuwqICaR8e8XLIwu7njegYjz/VWGTsTXJiSgn03u+j0cVUiWSv8HKnbc8z1ClThaYfOVHOusourD8Z8djvUw4AxbczO2xdjtzSEzXGnlzpqZhdX43rHtIqtttmvwv/msQsLXvNMr4sb5DBOi9kZ5rIIu3HAsbm0/ZcyGmAXVpQMAJEMbbF8Da0vn13ouhx4K/wY67SEHe0jl90hp/3Bsjl24V2XQXu062rd3aoIO8Pbsux2xEBMOqARdoZ5RJd57A65TXG7DbIzrNdLHfv1Pu5OPjvD2ZAGat2A3kKHRcqOWCaH3Ti/9cmw2RQ7I6B5RwF2bJhc0acY26TsDBfFU5bdkryOMDOx3DBbQX80/SbZMSMTonDJaSzskozh7ZkxnTotw84zrrMzUJGONV5GGavfRylLbHhl2HkWRwFl55wxhHkm7iQxPJSnDRMtV3v8slz8DOOyrNMy7OK3K2Y3R+/QPWS37mBJUTJUgp03PY446pDnNgmGjj82UDeoDcE2O9mfj8iGSYrBuCzrtCw7WDrLDqPrw6KgkUcvoAw7ZoIjfi7RBne1EDttBC0P2QzoDegVcVoOOwuYJmWHpyk7VBS08ujN18pOO0C3DXC6JmKnrT1BaVlnvCm4BTsthx30fMoOVmaYJKEEzY9Y1csO1kb9T8gO9h47emokzjjzJ+K0PHagTYTdMODflmgE2ujVzQ69VhcHCyE72GLMLgVmjTZZwdhpeeyAQRF2cxoPkGDvzdrZQae1cIYvZHeE7F7BhWz8MTsAEXZaLrvsFRB2cJrC4ECT52bZFbU7OHwjLtkFExonTuAydmisvZgUYYcawazcQHb1++xOHBCF7F6B5SBbzaLsGrsTHEhTdh4cL7xL3obZofHYZVZc08ue56xrZwcdyMQPCdmhIQhEvsxlI0+GxgmrTNk5qy0sqMNjB4cHmgdo0XTNct1oJXu62NSd36ELdBlSxG4D2KEWZi4bdRstqHDZjWEguKRumB0KFR7Tr+V4dVxm+xqI3Xq0QurD7KAKdlsYKsgypYDdK5xXoHn8NC0sshDYbei0mc9uZjABOa/BYXZ90XviCnk4naDCt1BsTnaV3XB9JTXmsesuxx6yBJi6ZalY3EvYMvi+MnZ7FKnOaDC7A29ILMbumgqtBQRidsPjxvSY8gTsjCAWXflB61aZoSUL7dCmgbuBWKEtUWrus+yg47OLhVWyY2Wx7AznzAFZcRipaEvy1+/wzBy47BBBMpDTZn924DOXRTDMbiqc/jXDjq9gSVuSv9CNnAi4bAxB5LQZu9ApjsjwRgw7NHUWbMw1zi6gG8n57IJXdDt1WZHTInYITjx63h07j6575rNzyNYz47Iip8XsfBhq3dXdsfPMNe9wxTV2jkkHH8ZlNRQJsnkvZocnrFvY/3sY79wt66857DgmwLqspqFHBOw60PBC8+8idnBl2HllKm2anSM6l3PN7jzGUNeMy+LMNh0VCDs8Tdlps+ryOw8K95mT37lEJie/YzDsBC1B7Ehi7pH1eZ7LEqe9ZGeUHTqEEXJH7F45s7Zi7JiDLj4zwUbzin1nScVh5xEOliDnRBsF4RRlbl1JVHkuq2ko9xaww8vQ42ylIWIHr/FOIVxhd4u1AG8Rztw26GXzvZaZkw3RAgpesMoGdWecTr9He87qIMMOrcs4mfNH7OASNV3naYBd8twKPsd/oex8FiYU2CfgtoKTTQmR3W1E7OBaquXvIDs8aaOHEKLSVr5gHeWGa1BwiCYbhUJ22kGwNoLXigRyROxgEu0tNpCdBtnxmhlY0frddn/oz7v1rd/BkYSO/CJ20LxQbWscx7g6Oy2HnQ87kZYUs+OuLQM554c8Jxx5amMHzyq4vAyPt34HrRXsWhVKrM5Oy2HHOcVyYQfTHHqAI1JWsbuscd0YGt66IDuYyTqZGRRx2UuyyWPXYY+xnNmhExx0Goi6b9bJbszLXHPYoUlSZnhFXDa0jKOIHRpIMSmUv65pG8FLM4c1soOnOXiGx2U34m1wcM2GVeK0XHZDTgkJuw1yWhot4C5frXs9C5h9sTGMv18B/+qe02DudjVHrpAdHtcSJexQlhIZFxQAG806amTnX0+e+OxQJ80EHnBZ5gMOxPooZMeZPZ9HNzhKGJ4Dm9kHHYh2qurcY4Q787hVYnbYu9z9qNMBua0zpELHbQ5idnMG3pkdWuEzPDNdwllO6eZtqbOLc666Ina4vebG7yxBJBPsMeJh3bOgafG2Y5DhidmRo7EZO22B3dkxF+Gsb74xTGbWUurMrMNTOPMU7c+SVllmADovYMcb1lM2nHCNJjBHMbsRzREv7Lr0ghfO+hz6pUG3JDu+TDE7xlHgIojoXABnWL+Ik7yiDC1yWhE7PLAZIJs75odxMw51tbJjHMXK99kwMRBlc/zVSRSRrrCj3wJkbZnnwXMTd6mXnU9aBZ1OyI52Mnuau3iPjqmNxOxQzmSg95gD77LZWS877dWi9+azE3aFwkh0xJFWzI6MpNAHRqZ45uIFlx7VzE7bo9ELHoYWswvh8boiypGw04rZ4TkEnr0OpyJ6lpH6St3stL2I0RV2mu9ZbFfYqXoi5LTHuZgdjqikuOPaZIOU53ogutXOThsH6Qc+aAUZfiPOeuNqb5quZaEvxAWfco9gSYtx+s37P8yPCYzh9+XMN+/+xjKdrK2OY5oHdER6+A+oaE2elvnm3fzZQd+8B+y3h+NtEHJwTdOAXLtQPCadpe938m5iSppduz+vzuWqv1jH6NaL1xVzhObq4+zFbr4KtKnb8X0f/TDE/wFlE1OpZFkcqgAAAABJRU5ErkJggg==;" parent="gIQvh4hmUggV0KQkSDBD-1" vertex="1">
          <mxGeometry x="43" y="-78" width="47" height="23.87" as="geometry" />
        </mxCell>
        <mxCell id="egbzhNYEAOs6-vXCHUsi-2" style="edgeStyle=orthogonalEdgeStyle;rounded=0;orthogonalLoop=1;jettySize=auto;html=1;exitX=1;exitY=1;exitDx=0;exitDy=0;exitPerimeter=0;entryX=0.5;entryY=0;entryDx=0;entryDy=0;" parent="gIQvh4hmUggV0KQkSDBD-1" source="gIQvh4hmUggV0KQkSDBD-5" target="egbzhNYEAOs6-vXCHUsi-1" edge="1">
          <mxGeometry relative="1" as="geometry">
            <Array as="points">
              <mxPoint x="120" y="250" />
              <mxPoint x="120" y="290" />
              <mxPoint x="380" y="290" />
              <mxPoint x="380" y="330" />
              <mxPoint x="227" y="330" />
            </Array>
          </mxGeometry>
        </mxCell>
        <mxCell id="gIQvh4hmUggV0KQkSDBD-5" value="" style="verticalAlign=top;align=left;shape=cube;size=10;direction=south;fontStyle=0;html=1;boundedLbl=1;spacingLeft=5;whiteSpace=wrap;fillColor=#bac8d3;strokeColor=#23445d;" parent="gIQvh4hmUggV0KQkSDBD-1" vertex="1">
          <mxGeometry x="90" y="-60" width="650" height="310" as="geometry" />
        </mxCell>
        <mxCell id="gIQvh4hmUggV0KQkSDBD-6" value="Cluster Segregado" style="image;sketch=0;aspect=fixed;html=1;points=[];align=center;fontSize=12;image=img/lib/mscae/Kubernetes.svg;labelPosition=center;verticalLabelPosition=top;verticalAlign=bottom;" parent="gIQvh4hmUggV0KQkSDBD-5" vertex="1">
          <mxGeometry x="595.5691056910571" y="-1" width="48.333333333333336" height="46.4" as="geometry" />
        </mxCell>
        <mxCell id="gIQvh4hmUggV0KQkSDBD-7" style="edgeStyle=orthogonalEdgeStyle;rounded=0;orthogonalLoop=1;jettySize=auto;html=1;exitX=0.5;exitY=1;exitDx=0;exitDy=0;exitPerimeter=0;entryX=0.5;entryY=0;entryDx=0;entryDy=0;entryPerimeter=0;flowAnimation=0;" parent="gIQvh4hmUggV0KQkSDBD-5" source="gIQvh4hmUggV0KQkSDBD-8" target="gIQvh4hmUggV0KQkSDBD-9" edge="1">
          <mxGeometry relative="1" as="geometry" />
        </mxCell>
        <mxCell id="gIQvh4hmUggV0KQkSDBD-8" value="" style="sketch=0;html=1;dashed=0;whitespace=wrap;fillColor=#2875E2;strokeColor=#ffffff;points=[[0.005,0.63,0],[0.1,0.2,0],[0.9,0.2,0],[0.5,0,0],[0.995,0.63,0],[0.72,0.99,0],[0.5,1,0],[0.28,0.99,0]];verticalLabelPosition=bottom;align=center;verticalAlign=top;shape=mxgraph.kubernetes.icon;prIcon=ing" parent="gIQvh4hmUggV0KQkSDBD-5" vertex="1">
          <mxGeometry x="349.90123456790127" y="16" width="86.94179894179895" height="44.06" as="geometry" />
        </mxCell>
        <mxCell id="gIQvh4hmUggV0KQkSDBD-9" value="" style="sketch=0;html=1;dashed=0;whitespace=wrap;fillColor=#2875E2;strokeColor=#ffffff;points=[[0.005,0.63,0],[0.1,0.2,0],[0.9,0.2,0],[0.5,0,0],[0.995,0.63,0],[0.72,0.99,0],[0.5,1,0],[0.28,0.99,0]];verticalLabelPosition=bottom;align=center;verticalAlign=top;shape=mxgraph.kubernetes.icon;prIcon=svc" parent="gIQvh4hmUggV0KQkSDBD-5" vertex="1">
          <mxGeometry x="363.70370370370375" y="83.66310344827585" width="60.18518518518519" height="41.33689655172414" as="geometry" />
        </mxCell>
        <mxCell id="u1wiQ4iJeH9voT5sS1KQ-74" value="" style="edgeStyle=orthogonalEdgeStyle;rounded=0;orthogonalLoop=1;jettySize=auto;html=1;" parent="gIQvh4hmUggV0KQkSDBD-5" source="u1wiQ4iJeH9voT5sS1KQ-28" target="u1wiQ4iJeH9voT5sS1KQ-33" edge="1">
          <mxGeometry relative="1" as="geometry" />
        </mxCell>
        <mxCell id="u1wiQ4iJeH9voT5sS1KQ-75" value="" style="edgeStyle=orthogonalEdgeStyle;rounded=0;orthogonalLoop=1;jettySize=auto;html=1;" parent="gIQvh4hmUggV0KQkSDBD-5" source="u1wiQ4iJeH9voT5sS1KQ-28" target="u1wiQ4iJeH9voT5sS1KQ-36" edge="1">
          <mxGeometry relative="1" as="geometry" />
        </mxCell>
        <mxCell id="u1wiQ4iJeH9voT5sS1KQ-77" value="" style="edgeStyle=orthogonalEdgeStyle;rounded=0;orthogonalLoop=1;jettySize=auto;html=1;" parent="gIQvh4hmUggV0KQkSDBD-5" source="u1wiQ4iJeH9voT5sS1KQ-28" target="u1wiQ4iJeH9voT5sS1KQ-31" edge="1">
          <mxGeometry relative="1" as="geometry" />
        </mxCell>
        <mxCell id="u1wiQ4iJeH9voT5sS1KQ-28" value="" style="aspect=fixed;sketch=0;html=1;dashed=0;whitespace=wrap;verticalLabelPosition=bottom;verticalAlign=top;fillColor=#2875E2;strokeColor=#ffffff;points=[[0.005,0.63,0],[0.1,0.2,0],[0.9,0.2,0],[0.5,0,0],[0.995,0.63,0],[0.72,0.99,0],[0.5,1,0],[0.28,0.99,0]];shape=mxgraph.kubernetes.icon2;kubernetesLabel=1;prIcon=api" parent="gIQvh4hmUggV0KQkSDBD-5" vertex="1">
          <mxGeometry x="120.0085185185185" y="94.00000000000001" width="50" height="48" as="geometry" />
        </mxCell>
        <mxCell id="u1wiQ4iJeH9voT5sS1KQ-31" value="" style="aspect=fixed;sketch=0;html=1;dashed=0;whitespace=wrap;verticalLabelPosition=bottom;verticalAlign=top;fillColor=#2875E2;strokeColor=#ffffff;points=[[0.005,0.63,0],[0.1,0.2,0],[0.9,0.2,0],[0.5,0,0],[0.995,0.63,0],[0.72,0.99,0],[0.5,1,0],[0.28,0.99,0]];shape=mxgraph.kubernetes.icon2;kubernetesLabel=1;prIcon=etcd" parent="gIQvh4hmUggV0KQkSDBD-5" vertex="1">
          <mxGeometry x="10" y="99" width="50" height="48" as="geometry" />
        </mxCell>
        <mxCell id="u1wiQ4iJeH9voT5sS1KQ-36" value="" style="aspect=fixed;sketch=0;html=1;dashed=0;whitespace=wrap;verticalLabelPosition=bottom;verticalAlign=top;fillColor=#2875E2;strokeColor=#ffffff;points=[[0.005,0.63,0],[0.1,0.2,0],[0.9,0.2,0],[0.5,0,0],[0.995,0.63,0],[0.72,0.99,0],[0.5,1,0],[0.28,0.99,0]];shape=mxgraph.kubernetes.icon2;kubernetesLabel=1;prIcon=sc" parent="gIQvh4hmUggV0KQkSDBD-5" vertex="1">
          <mxGeometry x="120.00460317460318" y="172" width="50" height="48" as="geometry" />
        </mxCell>
        <mxCell id="u1wiQ4iJeH9voT5sS1KQ-44" value="http:// dominio.com.br" style="text;html=1;align=center;verticalAlign=middle;resizable=0;points=[];autosize=1;strokeColor=none;fillColor=none;fontSize=12;fontStyle=1" parent="gIQvh4hmUggV0KQkSDBD-5" vertex="1">
          <mxGeometry x="413.91534391534384" y="22" width="140" height="30" as="geometry" />
        </mxCell>
        <mxCell id="u1wiQ4iJeH9voT5sS1KQ-45" value="svc" style="text;html=1;align=center;verticalAlign=middle;resizable=0;points=[];autosize=1;strokeColor=none;fillColor=none;fontSize=12;fontStyle=1" parent="gIQvh4hmUggV0KQkSDBD-5" vertex="1">
          <mxGeometry x="415.06172839506166" y="93" width="40" height="30" as="geometry" />
        </mxCell>
        <mxCell id="u1wiQ4iJeH9voT5sS1KQ-33" value="" style="aspect=fixed;sketch=0;html=1;dashed=0;whitespace=wrap;verticalLabelPosition=bottom;verticalAlign=top;fillColor=#2875E2;strokeColor=#ffffff;points=[[0.005,0.63,0],[0.1,0.2,0],[0.9,0.2,0],[0.5,0,0],[0.995,0.63,0],[0.72,0.99,0],[0.5,1,0],[0.28,0.99,0]];shape=mxgraph.kubernetes.icon2;prIcon=control_plane" parent="gIQvh4hmUggV0KQkSDBD-5" vertex="1">
          <mxGeometry x="120.00999999999999" y="13.000000000000014" width="50" height="48" as="geometry" />
        </mxCell>
        <mxCell id="u1wiQ4iJeH9voT5sS1KQ-81" value="" style="aspect=fixed;sketch=0;html=1;dashed=0;whitespace=wrap;verticalLabelPosition=bottom;verticalAlign=top;fillColor=#2875E2;strokeColor=#ffffff;points=[[0.005,0.63,0],[0.1,0.2,0],[0.9,0.2,0],[0.5,0,0],[0.995,0.63,0],[0.72,0.99,0],[0.5,1,0],[0.28,0.99,0]];shape=mxgraph.kubernetes.icon2;prIcon=control_plane" parent="gIQvh4hmUggV0KQkSDBD-5" vertex="1">
          <mxGeometry x="170" y="12.000000000000014" width="50" height="48" as="geometry" />
        </mxCell>
        <mxCell id="u1wiQ4iJeH9voT5sS1KQ-80" value="" style="aspect=fixed;sketch=0;html=1;dashed=0;whitespace=wrap;verticalLabelPosition=bottom;verticalAlign=top;fillColor=#2875E2;strokeColor=#ffffff;points=[[0.005,0.63,0],[0.1,0.2,0],[0.9,0.2,0],[0.5,0,0],[0.995,0.63,0],[0.72,0.99,0],[0.5,1,0],[0.28,0.99,0]];shape=mxgraph.kubernetes.icon2;prIcon=control_plane" parent="gIQvh4hmUggV0KQkSDBD-5" vertex="1">
          <mxGeometry x="140" y="12.000000000000014" width="50" height="48" as="geometry" />
        </mxCell>
        <mxCell id="u1wiQ4iJeH9voT5sS1KQ-79" value="" style="aspect=fixed;sketch=0;html=1;dashed=0;whitespace=wrap;verticalLabelPosition=bottom;verticalAlign=top;fillColor=#2875E2;strokeColor=#ffffff;points=[[0.005,0.63,0],[0.1,0.2,0],[0.9,0.2,0],[0.5,0,0],[0.995,0.63,0],[0.72,0.99,0],[0.5,1,0],[0.28,0.99,0]];shape=mxgraph.kubernetes.icon2;kubernetesLabel=1;prIcon=api" parent="gIQvh4hmUggV0KQkSDBD-5" vertex="1">
          <mxGeometry x="160" y="94" width="50" height="48" as="geometry" />
        </mxCell>
        <mxCell id="u1wiQ4iJeH9voT5sS1KQ-78" value="" style="aspect=fixed;sketch=0;html=1;dashed=0;whitespace=wrap;verticalLabelPosition=bottom;verticalAlign=top;fillColor=#2875E2;strokeColor=#ffffff;points=[[0.005,0.63,0],[0.1,0.2,0],[0.9,0.2,0],[0.5,0,0],[0.995,0.63,0],[0.72,0.99,0],[0.5,1,0],[0.28,0.99,0]];shape=mxgraph.kubernetes.icon2;kubernetesLabel=1;prIcon=api" parent="gIQvh4hmUggV0KQkSDBD-5" vertex="1">
          <mxGeometry x="139.9985185185185" y="94.00000000000001" width="50" height="48" as="geometry" />
        </mxCell>
        <mxCell id="gIQvh4hmUggV0KQkSDBD-10" value="Prod" style="rounded=0;whiteSpace=wrap;html=1;fillColor=#60a917;fontColor=#ffffff;strokeColor=#2D7600;" parent="gIQvh4hmUggV0KQkSDBD-1" vertex="1">
          <mxGeometry x="40" y="114" width="50" height="26" as="geometry" />
        </mxCell>
        <mxCell id="gIQvh4hmUggV0KQkSDBD-12" value="Access Control" style="rounded=0;whiteSpace=wrap;html=1;fillColor=#b0e3e6;strokeColor=#0e8088;" parent="gIQvh4hmUggV0KQkSDBD-1" vertex="1">
          <mxGeometry x="680.84" y="-127.00000000000003" width="90" height="30" as="geometry" />
        </mxCell>
        <mxCell id="gIQvh4hmUggV0KQkSDBD-13" value="Authentication" style="rounded=0;whiteSpace=wrap;html=1;fillColor=#b0e3e6;strokeColor=#0e8088;" parent="gIQvh4hmUggV0KQkSDBD-1" vertex="1">
          <mxGeometry x="681.84" y="-196.00000000000003" width="88.02" height="29.34" as="geometry" />
        </mxCell>
        <mxCell id="gIQvh4hmUggV0KQkSDBD-14" value="Security Policy" style="rounded=0;whiteSpace=wrap;html=1;fillColor=#b0e3e6;strokeColor=#0e8088;" parent="gIQvh4hmUggV0KQkSDBD-1" vertex="1">
          <mxGeometry x="680.84" y="-162.00000000000003" width="90" height="30" as="geometry" />
        </mxCell>
        <mxCell id="gIQvh4hmUggV0KQkSDBD-27" value="Node 1" style="verticalAlign=top;align=center;shape=cube;size=10;direction=south;html=1;boundedLbl=1;spacingLeft=5;whiteSpace=wrap;fillColor=#dae8fc;strokeColor=#6c8ebf;gradientColor=#7ea6e0;" parent="gIQvh4hmUggV0KQkSDBD-1" vertex="1">
          <mxGeometry x="303" y="99.33333333333334" width="100" height="146.044" as="geometry" />
        </mxCell>
        <mxCell id="gIQvh4hmUggV0KQkSDBD-28" value="" style="sketch=0;html=1;dashed=0;whitespace=wrap;fillColor=#2875E2;strokeColor=#ffffff;points=[[0.005,0.63,0],[0.1,0.2,0],[0.9,0.2,0],[0.5,0,0],[0.995,0.63,0],[0.72,0.99,0],[0.5,1,0],[0.28,0.99,0]];verticalLabelPosition=bottom;align=center;verticalAlign=top;shape=mxgraph.kubernetes.icon;prIcon=node" parent="gIQvh4hmUggV0KQkSDBD-1" vertex="1">
          <mxGeometry x="364" y="96.95533333333333" width="50" height="31.378" as="geometry" />
        </mxCell>
        <mxCell id="gIQvh4hmUggV0KQkSDBD-29" value="" style="sketch=0;html=1;dashed=0;whitespace=wrap;fillColor=#2875E2;strokeColor=#ffffff;points=[[0.005,0.63,0],[0.1,0.2,0],[0.9,0.2,0],[0.5,0,0],[0.995,0.63,0],[0.72,0.99,0],[0.5,1,0],[0.28,0.99,0]];verticalLabelPosition=bottom;align=center;verticalAlign=top;shape=mxgraph.kubernetes.icon;prIcon=pod" parent="gIQvh4hmUggV0KQkSDBD-1" vertex="1">
          <mxGeometry x="327" y="205.66666666666666" width="50" height="36.733333333333334" as="geometry" />
        </mxCell>
        <mxCell id="gIQvh4hmUggV0KQkSDBD-30" value="" style="sketch=0;html=1;dashed=0;whitespace=wrap;fillColor=#2875E2;strokeColor=#ffffff;points=[[0.005,0.63,0],[0.1,0.2,0],[0.9,0.2,0],[0.5,0,0],[0.995,0.63,0],[0.72,0.99,0],[0.5,1,0],[0.28,0.99,0]];verticalLabelPosition=bottom;align=center;verticalAlign=top;shape=mxgraph.kubernetes.icon;prIcon=pod" parent="gIQvh4hmUggV0KQkSDBD-1" vertex="1">
          <mxGeometry x="327" y="132.722" width="50" height="36.733333333333334" as="geometry" />
        </mxCell>
        <mxCell id="gIQvh4hmUggV0KQkSDBD-31" value="" style="sketch=0;html=1;dashed=0;whitespace=wrap;fillColor=#2875E2;strokeColor=#ffffff;points=[[0.005,0.63,0],[0.1,0.2,0],[0.9,0.2,0],[0.5,0,0],[0.995,0.63,0],[0.72,0.99,0],[0.5,1,0],[0.28,0.99,0]];verticalLabelPosition=bottom;align=center;verticalAlign=top;shape=mxgraph.kubernetes.icon;prIcon=pod" parent="gIQvh4hmUggV0KQkSDBD-1" vertex="1">
          <mxGeometry x="327" y="169.9" width="50" height="36.733333333333334" as="geometry" />
        </mxCell>
        <mxCell id="gIQvh4hmUggV0KQkSDBD-32" style="edgeStyle=orthogonalEdgeStyle;rounded=0;orthogonalLoop=1;jettySize=auto;html=1;entryX=0.5;entryY=0;entryDx=0;entryDy=0;" parent="gIQvh4hmUggV0KQkSDBD-1" target="gIQvh4hmUggV0KQkSDBD-40" edge="1">
          <mxGeometry relative="1" as="geometry">
            <mxPoint x="120" y="250" as="sourcePoint" />
            <Array as="points">
              <mxPoint x="120" y="290" />
              <mxPoint x="489" y="290" />
            </Array>
          </mxGeometry>
        </mxCell>
        <mxCell id="gIQvh4hmUggV0KQkSDBD-33" style="edgeStyle=orthogonalEdgeStyle;rounded=0;orthogonalLoop=1;jettySize=auto;html=1;entryX=0.5;entryY=0;entryDx=0;entryDy=0;" parent="gIQvh4hmUggV0KQkSDBD-1" target="gIQvh4hmUggV0KQkSDBD-40" edge="1">
          <mxGeometry relative="1" as="geometry">
            <mxPoint x="640" y="250" as="sourcePoint" />
            <Array as="points">
              <mxPoint x="640" y="290" />
              <mxPoint x="489" y="290" />
            </Array>
          </mxGeometry>
        </mxCell>
        <mxCell id="gIQvh4hmUggV0KQkSDBD-35" value="Node 3" style="verticalAlign=top;align=center;shape=cube;size=10;direction=south;html=1;boundedLbl=1;spacingLeft=5;whiteSpace=wrap;fillColor=#dae8fc;strokeColor=#6c8ebf;gradientColor=#7ea6e0;" parent="gIQvh4hmUggV0KQkSDBD-1" vertex="1">
          <mxGeometry x="560" y="99.33333333333334" width="100" height="146.044" as="geometry" />
        </mxCell>
        <mxCell id="gIQvh4hmUggV0KQkSDBD-36" value="" style="sketch=0;html=1;dashed=0;whitespace=wrap;fillColor=#2875E2;strokeColor=#ffffff;points=[[0.005,0.63,0],[0.1,0.2,0],[0.9,0.2,0],[0.5,0,0],[0.995,0.63,0],[0.72,0.99,0],[0.5,1,0],[0.28,0.99,0]];verticalLabelPosition=bottom;align=center;verticalAlign=top;shape=mxgraph.kubernetes.icon;prIcon=node" parent="gIQvh4hmUggV0KQkSDBD-1" vertex="1">
          <mxGeometry x="621" y="96.95533333333333" width="50" height="31.378" as="geometry" />
        </mxCell>
        <mxCell id="gIQvh4hmUggV0KQkSDBD-37" value="" style="sketch=0;html=1;dashed=0;whitespace=wrap;fillColor=#2875E2;strokeColor=#ffffff;points=[[0.005,0.63,0],[0.1,0.2,0],[0.9,0.2,0],[0.5,0,0],[0.995,0.63,0],[0.72,0.99,0],[0.5,1,0],[0.28,0.99,0]];verticalLabelPosition=bottom;align=center;verticalAlign=top;shape=mxgraph.kubernetes.icon;prIcon=pod" parent="gIQvh4hmUggV0KQkSDBD-1" vertex="1">
          <mxGeometry x="584" y="205.66666666666666" width="50" height="36.733333333333334" as="geometry" />
        </mxCell>
        <mxCell id="gIQvh4hmUggV0KQkSDBD-38" value="" style="sketch=0;html=1;dashed=0;whitespace=wrap;fillColor=#2875E2;strokeColor=#ffffff;points=[[0.005,0.63,0],[0.1,0.2,0],[0.9,0.2,0],[0.5,0,0],[0.995,0.63,0],[0.72,0.99,0],[0.5,1,0],[0.28,0.99,0]];verticalLabelPosition=bottom;align=center;verticalAlign=top;shape=mxgraph.kubernetes.icon;prIcon=pod" parent="gIQvh4hmUggV0KQkSDBD-1" vertex="1">
          <mxGeometry x="584" y="132.722" width="50" height="36.733333333333334" as="geometry" />
        </mxCell>
        <mxCell id="gIQvh4hmUggV0KQkSDBD-39" value="" style="sketch=0;html=1;dashed=0;whitespace=wrap;fillColor=#2875E2;strokeColor=#ffffff;points=[[0.005,0.63,0],[0.1,0.2,0],[0.9,0.2,0],[0.5,0,0],[0.995,0.63,0],[0.72,0.99,0],[0.5,1,0],[0.28,0.99,0]];verticalLabelPosition=bottom;align=center;verticalAlign=top;shape=mxgraph.kubernetes.icon;prIcon=pod" parent="gIQvh4hmUggV0KQkSDBD-1" vertex="1">
          <mxGeometry x="584" y="169.9" width="50" height="36.733333333333334" as="geometry" />
        </mxCell>
        <mxCell id="gIQvh4hmUggV0KQkSDBD-40" value="" style="shape=image;verticalLabelPosition=bottom;labelBackgroundColor=default;verticalAlign=top;aspect=fixed;imageAspect=0;image=data:image/png,iVBORw0KGgoAAAANSUhEUgAAAEMAAAAXCAYAAABQ1fKSAAAAAXNSR0IArs4c6QAAAARnQU1BAACxjwv8YQUAAAAJcEhZcwAAFxEAABcRAcom8z8AAAoSSURBVFhHzVhncFXXEX524jiTTMY/MkkmcUgmDccU0ZsQqFcESKgXioQppgghRLMBgQMYGAGmqGNAoghBLNuJsUAFgQEbIZowRlZ5EkId9afe3pfdvfepGBmHzETDN3Pn3nfunnPPfmfPt3ueBoMAfVsr6uP2o3K9P1rvfqm2vngYFDLqT4ch7+8a5P1VgyKHP6HjcYH65sXCoJBRE/4ecv9MZAzVoMD4NbRnZ6lvXiwMChkdJY9QvtwRRXZDUXd0D/SdneqbFwtPk9Hdja76WnQ3NaoNCvRd/R3Qk11f6NvbpJ++tUVt6Q99Zxc6SwvVX0+jqakJOp1O/aVAr9erTwOjsbFR+nT/gJ0BHR0d8p12ug+EXjJovMakBFSs80Gx9ySULrREbeR2dD6pQOPnZ1C+0h31ZyLEtPlaMspXe9P7Heiqq4Eu8RjKls+WfmVLHWT1u2qqxJbBxNYd2Y2KjYvQcvOy2qogNzcX4RGRCAoKxsqAVQjduw/5Wi3y8vKxY+f7CA+PQH19vWqt4KuvbiA0dB9WBQYhICCQ7HYhLe2SODsQyisqcDbhLEJCtmF10BpsCdmK06fPoKysXLVQIGTwqlbtWIH8kcq+zhtG19/oekODkrkmKDR5DTl/0OCR1etoz81GyfxpyPm9BvmjNChdYA4t3fP+QtebdLFQUt9SP3OKhEfykearF2WsnNdpvHnT0K1rkPZrV6/D3cMLxlOnw9zCCtNNLeh5Ghb4+cPf/y155isxMVHs29vbEUbk2NjaY6rJ9J730t/SCtt37ERtba3YGnD7zh0sfGsRTKaZSp8pxoq9iYkpfWchMjIyVEuVDI4Aniw7lz9CA+3ol1Aw5RfiXD4Rox1NdyPKBLZD0JyehBKvcUr72Jflzn21k34G7bhXkD+cnsdokEvkVKzzEn1oPB8v7UzyYxcj+mAVtMUl8CAiTM0txTkLC2vMdpoDaxtbmJpZwNraFnb2M2BpZYOYmCMy2aPHjss7Jo77LH17GVauXAXHmbOkjR3+x/YdPRGi1RbAx3cukWwu713d3MWeF8DC0hrTpptRmwcePPhG7DWdZcUoNPsN8miyTESJzxQ0pf8bLZlXULVnDTn2Ml0vSdQU2f0RzVeSyWaiQga3E4GVm/3QciMNzdcvomyZg0Iokacd+ypabl9D8+XzStRRnxKPseisLMP+sEiZDDs1a7YzTp2KR9b9+0hJTcX8Bf5CgoGM0/HxyMnJEbLYKYcZM5FAYV9dXY2GhgZcunRJHDQnQi3I/mJyijjHxPA3LCxtELg6CA8fPhR7HuuddzfJ2Ezgxo3vStRpdJ/EytZgpwpNf4W2h3dlIAMq1rhJ6A9EBjtX6m8OfUevuHZWlKBoxlCJJK4raiPeQ1PqpzI+25d7T0DlN/fhOd8fVrT6ZhQZ0erKG/DFF1eFCCaKbU6ePIXY2DiauJnYs158F0ympZUtOW+OzVu2orDwkRA0nSLJxdUdpaWlqqWCmpoaeHp6S4TY2jmQRuVBU7l1qawkh3rFWg+WcNVcge6zeAl/dqQvGUwQr37t0VDVshfVoeuUbUd9KoLc0HDuQ4oSiiL6Xek7GXeSL2CWm6esMk/0668fqD0V6ChLsJiy4zzR8LAIhGzdJhNncoKD1yEqOgaHw8Jx+HAYIiOjsXlziEQMj7ls+UocOxaLmbOcYEn2Lq5uiIyKRjT1MdxZe3x85grhHD1JSUnQlAe696xi9Z5AdTq9aMm4jIKpin48RQY5qPv0pGrZi/q4fSKiTHLZImuqQMPJ9kdCxhMi4/JH5zDT1UOc9Z07H0VFRWpPBZxSWfF5khwhBw4cxJrgtRLWMxxnwZiEcNjwkRg2wgjD6Ro23Aijx4wXMR03fqKQcfDgYSHS3sFRHDYaNUZsh48YJfcRRqMxecpUEdWJk6bgs/OfU2SELO4TGZ6SYvtCR+L3fZHBJLL4fhfVe9XIIB0qD3BCfUJMj9gyGTeTzveLDIOAGdDc3CwpkMWSHQqjCNhEK2+IjIBVq2V1OSXzCvMVQc+83aJo5TMybuI8OWfYZs5zXLB3334cOnQYHxCxynVAooqji4WZs5Cm4Wy0MnHRjF8/rRnB7s/UDBbc7uYm1VrVDMc3eqKt5tBmNCYn9mhGhfdEFN+9DRdv3x7N4Mn0BdcRHPLsjLWNHeLiTiDmyIeqGFpjAwneQKitrRMRZnz7bQ6cnF2F8FlOzrhzp79fBmRnZ6OqSqmJNB1F+XJeYGd7sknaJ7Q90lG1O+jZ2YRXm9or1vug5csUqicuUDaxlzbJJuM4m1ztl01KPcehreQxNmzZJkSww07OLog/k4B7WVlITU2TGqNvNomPP4MsejfDcab8ZoJ2vr8L9+5loaSkhLJENk6cOAEvLx9K1RYSKYy169ZLdHEfHvPy5StkX0rFVhluUH3BQstjzV/gJ4RoWDCr91FY0ypy8cSE8CoWTP65EhHsNNcZTIbUGRd6yRhHOsARwPox4adEzo+VOoPsebwnm/yojO/uV2cUc51RV43rmbclMvhiQngFZ9MK8m/D9jCQcfToMdERrkanU7ZgG1lxSslcOPFWM6M+TO6kycbYvWuPkHH37j3MJhtu53H4O1zQ+RExPDZ/hzXDyXmOkCpFV3eTDpU0cQl9TrN8ZwEkJ8uW2KFw2i+RM4QqUJshaM3KRLHXeOSToGon/ASPLH6rOMoVK1egtOX4KgtwRldVpUxKKlAaK+d3FBlUverVc08shb+ltU1P+HNxxOK4eMlSqhoXkwO24sQR2iKM1tZWRRjJKa4P2J7vhurS3mEmdlJpXlmpfJeRnp4OT28fec9plr9l6MPPvvPmIyUlVcjuOZtIpfivkySidDbxNUbpIhs6Y4Siu6FeOZsEeKHh4+Poqq3GY7dRajS8irq4Q2hIiKLt4Yhi2mLlq1zkDNNXR/hsUhu1A+Vr5sn264ubNzPx/q7dIopBa9ZKtVlYWCjZhJ1lkk5QndEXN25kSIYJXruOUnCgFFDcj8caCAU03nGqUzZseAdLlryNFSsCpCD7KPHjfvVH70HNADm11qG7pVltUKDv6pJ7Z9UTPHYdqZBBetKY9E9p53+z5NT6PYclQZ8ahlcvMzMTdXV1aksvHjx4gDkurrIdmIzr1wf+d4yzDp9aW9va1JZngyOrrq6eqlAdulR/+uJpMn4AnU8qe8mg2kFH0fS8YCc4EvjA5Dt3Hg5Rirt4MRlXr16TMpvLcSaC97q//yKqFvsfvv5f+N/IcH5TIYOEUpcYq77578HR4EGl8BRjE1l53r98N4iaQT/s7R3laD5YeG4y+M+bUn8z5NKRXjv2FbTeuqa+eT7cunVbUp8DVYgsZJwdOBKYDHMLSyxZugzplAoHE89NBqM9/yFqPghBU0piPx14XvC+zc/XkpqnSeEVFRWDs+fOUf1wD41NvQI8OAD+AxC+HkowZlciAAAAAElFTkSuQmCC;" parent="gIQvh4hmUggV0KQkSDBD-1" vertex="1">
          <mxGeometry x="457" y="310" width="63" height="21.62" as="geometry" />
        </mxCell>
        <mxCell id="gIQvh4hmUggV0KQkSDBD-55" value="" style="rounded=0;whiteSpace=wrap;html=1;fillColor=#dae8fc;strokeColor=#6c8ebf;gradientColor=#7ea6e0;" parent="gIQvh4hmUggV0KQkSDBD-1" vertex="1">
          <mxGeometry x="330" y="400" width="320" height="140" as="geometry" />
        </mxCell>
        <mxCell id="egbzhNYEAOs6-vXCHUsi-3" value="" style="edgeStyle=orthogonalEdgeStyle;rounded=0;orthogonalLoop=1;jettySize=auto;html=1;" parent="gIQvh4hmUggV0KQkSDBD-1" source="gIQvh4hmUggV0KQkSDBD-56" target="egbzhNYEAOs6-vXCHUsi-1" edge="1">
          <mxGeometry relative="1" as="geometry" />
        </mxCell>
        <mxCell id="gIQvh4hmUggV0KQkSDBD-56" value="&amp;nbsp; &amp;nbsp; &amp;nbsp; &amp;nbsp; &amp;nbsp; &amp;nbsp; &amp;nbsp; &amp;nbsp; &amp;nbsp; DC Corporativo II&lt;div&gt;&amp;nbsp; &amp;nbsp; &amp;nbsp; &amp;nbsp; &amp;nbsp; &amp;nbsp; &amp;nbsp; &amp;nbsp; &amp;nbsp;Disaster Recover&lt;/div&gt;" style="sketch=0;outlineConnect=0;html=1;whiteSpace=wrap;fontSize=12;fontStyle=0;shape=mxgraph.aws4.group;grIcon=mxgraph.aws4.group_on_premise;strokeColor=#82b366;fillColor=#d5e8d4;verticalAlign=top;align=left;spacingLeft=30;dashed=0;" parent="gIQvh4hmUggV0KQkSDBD-1" vertex="1">
          <mxGeometry x="339" y="410" width="281" height="120" as="geometry" />
        </mxCell>
        <mxCell id="gIQvh4hmUggV0KQkSDBD-57" style="edgeStyle=orthogonalEdgeStyle;rounded=0;orthogonalLoop=1;jettySize=auto;html=1;" parent="gIQvh4hmUggV0KQkSDBD-1" edge="1">
          <mxGeometry relative="1" as="geometry">
            <mxPoint x="489" y="290" as="sourcePoint" />
            <Array as="points">
              <mxPoint x="489" y="380" />
              <mxPoint x="408" y="380" />
            </Array>
            <mxPoint x="408" y="420" as="targetPoint" />
          </mxGeometry>
        </mxCell>
        <mxCell id="gIQvh4hmUggV0KQkSDBD-69" value="Node 2" style="verticalAlign=top;align=center;shape=cube;size=10;direction=south;html=1;boundedLbl=1;spacingLeft=5;whiteSpace=wrap;fillColor=#dae8fc;strokeColor=#6c8ebf;gradientColor=#7ea6e0;" parent="gIQvh4hmUggV0KQkSDBD-1" vertex="1">
          <mxGeometry x="434" y="99.33333333333334" width="100" height="146.044" as="geometry" />
        </mxCell>
        <mxCell id="gIQvh4hmUggV0KQkSDBD-70" value="" style="sketch=0;html=1;dashed=0;whitespace=wrap;fillColor=#2875E2;strokeColor=#ffffff;points=[[0.005,0.63,0],[0.1,0.2,0],[0.9,0.2,0],[0.5,0,0],[0.995,0.63,0],[0.72,0.99,0],[0.5,1,0],[0.28,0.99,0]];verticalLabelPosition=bottom;align=center;verticalAlign=top;shape=mxgraph.kubernetes.icon;prIcon=node" parent="gIQvh4hmUggV0KQkSDBD-1" vertex="1">
          <mxGeometry x="495" y="96.95533333333333" width="50" height="31.378" as="geometry" />
        </mxCell>
        <mxCell id="gIQvh4hmUggV0KQkSDBD-71" value="" style="sketch=0;html=1;dashed=0;whitespace=wrap;fillColor=#2875E2;strokeColor=#ffffff;points=[[0.005,0.63,0],[0.1,0.2,0],[0.9,0.2,0],[0.5,0,0],[0.995,0.63,0],[0.72,0.99,0],[0.5,1,0],[0.28,0.99,0]];verticalLabelPosition=bottom;align=center;verticalAlign=top;shape=mxgraph.kubernetes.icon;prIcon=pod" parent="gIQvh4hmUggV0KQkSDBD-1" vertex="1">
          <mxGeometry x="458" y="205.66666666666666" width="50" height="36.733333333333334" as="geometry" />
        </mxCell>
        <mxCell id="gIQvh4hmUggV0KQkSDBD-72" value="" style="sketch=0;html=1;dashed=0;whitespace=wrap;fillColor=#2875E2;strokeColor=#ffffff;points=[[0.005,0.63,0],[0.1,0.2,0],[0.9,0.2,0],[0.5,0,0],[0.995,0.63,0],[0.72,0.99,0],[0.5,1,0],[0.28,0.99,0]];verticalLabelPosition=bottom;align=center;verticalAlign=top;shape=mxgraph.kubernetes.icon;prIcon=pod" parent="gIQvh4hmUggV0KQkSDBD-1" vertex="1">
          <mxGeometry x="458" y="132.722" width="50" height="36.733333333333334" as="geometry" />
        </mxCell>
        <mxCell id="gIQvh4hmUggV0KQkSDBD-73" value="" style="sketch=0;html=1;dashed=0;whitespace=wrap;fillColor=#2875E2;strokeColor=#ffffff;points=[[0.005,0.63,0],[0.1,0.2,0],[0.9,0.2,0],[0.5,0,0],[0.995,0.63,0],[0.72,0.99,0],[0.5,1,0],[0.28,0.99,0]];verticalLabelPosition=bottom;align=center;verticalAlign=top;shape=mxgraph.kubernetes.icon;prIcon=pod" parent="gIQvh4hmUggV0KQkSDBD-1" vertex="1">
          <mxGeometry x="458" y="169.9" width="50" height="36.733333333333334" as="geometry" />
        </mxCell>
        <mxCell id="egbzhNYEAOs6-vXCHUsi-1" value="Oracle DB 12C" style="image;html=1;image=img/lib/clip_art/computers/Database_128x128.png" parent="gIQvh4hmUggV0KQkSDBD-1" vertex="1">
          <mxGeometry x="187" y="444" width="80" height="80" as="geometry" />
        </mxCell>
        <mxCell id="u1wiQ4iJeH9voT5sS1KQ-5" style="edgeStyle=orthogonalEdgeStyle;rounded=0;orthogonalLoop=1;jettySize=auto;html=1;entryX=0;entryY=0.5;entryDx=0;entryDy=0;" parent="gIQvh4hmUggV0KQkSDBD-1" source="u1wiQ4iJeH9voT5sS1KQ-0" target="u1wiQ4iJeH9voT5sS1KQ-4" edge="1">
          <mxGeometry relative="1" as="geometry" />
        </mxCell>
        <mxCell id="u1wiQ4iJeH9voT5sS1KQ-0" value="" style="image;aspect=fixed;perimeter=ellipsePerimeter;html=1;align=center;shadow=0;dashed=0;spacingTop=3;image=img/lib/active_directory/internet_cloud.svg;" parent="gIQvh4hmUggV0KQkSDBD-1" vertex="1">
          <mxGeometry x="-181.19" y="-480" width="208.38" height="131.28" as="geometry" />
        </mxCell>
        <mxCell id="u1wiQ4iJeH9voT5sS1KQ-1" value="Internet" style="text;html=1;align=center;verticalAlign=middle;resizable=0;points=[];autosize=1;strokeColor=none;fillColor=none;fontSize=25;fontStyle=1" parent="gIQvh4hmUggV0KQkSDBD-1" vertex="1">
          <mxGeometry x="-137.3400000000001" y="-434.3599999999999" width="110" height="40" as="geometry" />
        </mxCell>
        <mxCell id="u1wiQ4iJeH9voT5sS1KQ-3" style="edgeStyle=orthogonalEdgeStyle;rounded=0;orthogonalLoop=1;jettySize=auto;html=1;" parent="gIQvh4hmUggV0KQkSDBD-1" source="u1wiQ4iJeH9voT5sS1KQ-2" target="u1wiQ4iJeH9voT5sS1KQ-0" edge="1">
          <mxGeometry relative="1" as="geometry" />
        </mxCell>
        <mxCell id="u1wiQ4iJeH9voT5sS1KQ-2" value="Users" style="sketch=0;outlineConnect=0;fontColor=#232F3E;gradientColor=none;strokeColor=#232F3E;fillColor=#ffffff;dashed=0;verticalLabelPosition=bottom;verticalAlign=top;align=center;html=1;fontSize=12;fontStyle=0;aspect=fixed;shape=mxgraph.aws4.resourceIcon;resIcon=mxgraph.aws4.users;" parent="gIQvh4hmUggV0KQkSDBD-1" vertex="1">
          <mxGeometry x="-122" y="-78" width="90" height="90" as="geometry" />
        </mxCell>
        <mxCell id="u1wiQ4iJeH9voT5sS1KQ-4" value="             OPDK" style="shape=image;verticalLabelPosition=bottom;labelBackgroundColor=default;verticalAlign=top;aspect=fixed;imageAspect=0;image=data:image/png,iVBORw0KGgoAAAANSUhEUgAAAXwAAAB+CAYAAAAnWKp1AAAAAXNSR0IArs4c6QAAAARnQU1BAACxjwv8YQUAAAAJcEhZcwAADsMAAA7DAcdvqGQAADtBSURBVHhe7Z17fBTV2ce/s0OWDRvIEkAgBIIQInIRgpVXikIbqwhoKyrIK6CiYL2Vm31BvFJQEFFABbSV1gva4hXaYixeUFAIRmO4BWkIl0DIxUTYJVmzmTA77x+zu2yGXPYyu0lwvp9PPiHnHHZnn535zTPPec5zBEVRFAwM9OZEHsqXH+D+Zhu4TkP1aWjdDiztEHr2hUHDMY24Sfu/DAwMIohgCL6BnijlRSivPIryxatnG0X/EYCs/hIGj8J09xLonaYZYGBgEAkMwTfQDWXfTtxLRkORHeIET6v3tz+eU05SoD2Ypr2F8JtbtYMMDAx0xqRtMDAIBWX3VtzPTYBTdogzeYS+LrHnbJ9ZgNPgXjYJ5dO/awcZGBjojOHhG4SNcmg/7lkDQFZAbEjotSjqWNkN7W2Y5m5EGDRSO8jAwEAnDA/fIGzcq+9RwzNBib0fognK7Sjrn4eqCm2vgYGBThiCbxAW7m3vQ+6XangmHMwCys4NKLu2a3sMDAx0whB8g/DY7RXoMAUfAczgfnextsPAwEAnDME3CJ0TeSgHss5NuwwVswBZX2pbDQwMdMIQfIPQcTnVBVV6cyJP22JgYKADhuAbNC9iPDcSAwMD3TEE3yB0LFa1XIKe1AAdE7WtBgYGOmAIvkHoJHRFuCDJVypBF9oB8Z21rQYGBjpgCL5B6MS2ha69PH/osH5PUmDoWG2rgYGBThiCbxAWpqvGh5+DD+oNQwLTuP/TdhgYGOiEIfgG4dE7DeGae6EyTA9fUhB+dQtC6hBtj4GBgU4Ygm8QNsL/PgI9u6shmVBCO7IbLHEIN9yrhokMDAwigiH4BmEjdExEfPSfkBiC6MtuEAWEB18zCqcZGEQYQ/AN9KF3GqYH34GUwZ7wTmOir6jjOndH+L93jd2vDAyigFEe2UBfTuTh/uRNlHcWQRUQqx2A2g4IN85GGDMNoXc/7QgDA4MIYAi+QWRwlKJ88nfcn7wP0k9n29u0QbgsHeG6exCMBVYGBlHFEHyDyFNVgeKsQLC2NSZlDQyaEEPwDQwMDH4mGJO2BgYGBj8TDME3MDAw+JlgCL6BgYHBzwRD8A0MDAx+JkR+0tZRCpUOFNcZ+OEYnPgepfIUVPwIlVXQoQtCQifodjFc0APB0gri4vUtkesoRalRa/jqnilSVQHSTyg1MkKMqPtx12s7gNbxCO3aobSyIfS5GOI6qfZL6KrvZwwHrX3MbZrPsQFOp5PTp08jSRInT57k6NGjVFZU4nA4OCOfoZXYivj4eDp07ECPHj1o27Yt8fHxWCwWLBaL9uVCwul0UlNTA6Dr6+qJ3W7H4XBQXV1NWVkZP/zwg89OFRUVxLaJxWq1YmltqWWr1q1bY7PZmuVn0hu73Y7L5aK6uhrA99tL69atfb8tFgs2m61WfzSIjOA7SnHv/gp+KIODWSiHtkNRnm/BDQBmv39Lfv/uDMKF4yD1Muidiumya0ISCKW8CHZ9gXK8AI7thp/sKDU/IXRKgT5DEfpcHN5S/hN5KN9/i/L9t3CyCH6ygy0RuvRBuKAHQt9+0DtN+78ax2u7Q3mQ9w1KybdQdLy2jeqyXY2nlnxiKkLKCISBv0IYfBl0S/UbHEVO5KEc2I3yfTb8eFS1TxsbdOiJcOHAJj02l8tFfn4+Bw8e5MD3Bzh06BDFxcU4HA5atWoFQExMjG+8V4zPnDlD5y6d6Znck+49upOamsqQIUPo0qWLb2ygFBQUkJuby4kTJygvK6e8vByr1UpChwSSk5Pp378/qalNYx8veXl55Ofnc+LECb7f/z0lJSUUFRVx5syZBu2Ex1bx8fF07dqVAQMHkJqaSv/+/UlOTvaNaenY7XaOHDlCcXExJ06c4Pix4xQVFXHKfgpXlQtJkqiqUkUvNjYWs9lMfHw8tvY2OnboSPce3enWrRspKSlR+671FfyqCpQP16qLbYp2eOqqoG5yLXpL6DZUSlcBWVE31JCAOAFSr8U07GqEsdMCFn7l07/jfutZKM05uzmHd6Nt79+WOIRhEzHd+2TQXrn7tcdRvtoIx/dqu9TjNgPdUxEGj8M0ZXbAr6+sfxr355vqsV1ddlM07X72A0hMQ0gdjDDm9vBubkGivLcC9+fvw5Ht9W+O0n0gpokPIfzmVm1PRMnIyOCzTz+juLiYsrIyAERRRBQD24ldltUPJMsyoiiSlJTE/1z+P0yZMiVgL3blypVkfZ3FyZMncblctUTTS6dOnRg9ejTjJ4wP+HX1Iisri88+/Yy9e/ficDiQJMlnn0Dt5EWW5Vq26t27NyNGjmD48OHaoS2GvLw8MjIyyMvLo7S0lNOOs/s6N2Yn//OnpqYGi8VCQkICXbt25arfXEV6enpEv29dBF8pL4JP38D96nxV8GLrE3itQDWE57BkxbdE33Tn8oaF31GKe818lI9f9TuGut7PI4xVQM/uauGvALxxpbwI9xNjYf+u4F7/yU/r92arKnB/8zHKc3fA6coGbFcXDdnTT/ydQJ/uCFNXhPzEFBBVFbgXjEfZvll92mjMPqdBuPoWhPuXR3TVrdPpZOvWraxetRqHw0FsbGxQIt8QsizjcrkAmDtvboMXrN1u548P/pH8/HwsFkuD7y/LMpWVlfTt25dFTy6ia9eu2iG6Yrfb2bFjR0Rs5MUr/lVVVXTu0pnJkyczbNiwkJ6Qoo3dbic3N5fVq1Zz7Ngxn31oQNwDxWsX7xPSqFGjuHXSrXTu3LnecylUwhP8qgqUHf/B/cFiVQTj6rvAvTQkUHXhN152QxUI10zFdNtDdQqo++npKJ+v9WzIEcj7KGod9sGjMC14t2EhdJTifvpelO826Pf6J/Jwr1uGsnltIzeQ+gjCnrIbZBB+PQ3T+PsCusEFRVUF7rUPoWxaE5x9KtU6+KYn1ms7dSEnJ4cNH2xg27ZtjYpsOHgv2vT0dK7/7fUMGDCgVr/dbmf5c8vJzMzEbPaPyTWMJEn0Se3DsmXLsFqt2u6wcTqdfPzxx3zyySfsz90fURv5471RpqSkMPa6sc1W+O12O59//nlU7eN9orp29LX88pe/ZOjQodohISMuWLBggbYxIE7k4X5xDsq7C+DHEog1BXiRBzLGH894k6CGSg7loHy3FaFXmrqfqgfl07+jvPooxAYqNh5EAY7kI/QcgNBroLbXh7LpFZQPnw9CzDyIApzIh7Y9EPr9wtes7NuJe8UdsDNDvVGavAlTQbw2BD7eJKjhoUPfoez5HGyJCMn6FS1Ttv0L5Y25EBOkfcwCHN2H0DW1QfuHwoYNG1i1ahWH8g8RGxuLyWdj/TGZTIiiSH5+PpmZmaSlpdGhQwdf/5YtW3j33XeDEns83mPZD2WYzWYGDRqk7Q6LvLw8nl32LJs2bcJhd9C6deuI2sgfk8mE2WzG4XCQ9XUW+/btw2az0aNHD+3QJiMrK4vVq1bz4aYPo2ofURQxmUwc+P4A3377LYcPHSYlJYW2bRtwSAMkJA9f+fTvuJ+apApwUAIYhEcK9Yw/Gw4wLfsIYdi1UFWBPCFebReD+UI8ry+7ITEVce1/tQMATyjngW5wmjBefyDi/Nehd5oq9k8Og1Na+9X1eRsilPGeMJkMwsTFmCY+cO6TR7BUVSD/4RfqxHyo9rl4NKb5a3UJ7RQXF/PssmfJzs6OikemRZIkOnXqxMOPPMyAAQOw2+3cddddOCudIR2LLMskJSUxd95cXSb3nE4nH7z/AW+88QZA0DehSOANYY0dO5YZM2dE5GkmUOx2O6+99hobN2wkJiamSe3jfXI0m81Mmz6N0aNHhxXmCebqVEM465/GvXySGoIISuz1QlBFpR24nx6vevzb/+0R+xCPRRTgeJ6aBlkXu76AUv/YepCIAhzfi3I0Xw19LBldh9hHC4/9zALKGw/jfn6OmjoZBkred3AgLzz7fP8RHNyj7QmavLw8HpzzIHv27MFqtYYksOFiNpspKytjzZo1lJSUkJubS2lJacjHIooiBQUF5Ofna7uCxm6388LzL/DnP/8Zs9ncpGLmjyiKxMfHs3nzZh579DHy8vK0Q6JCXl4ef3zwj2zcsBGr1drk9hFFEbPZjCzLPPfsc6xYvgK73a4dFjBBhXTczz2A8q9l6h8+Ty7Yi1yn8SagWoJTdijOhaIDno56xtfL2fHCL65D6NKzVi+A+435UHwwhBg7nvGCekNq3wnlu08h68sGQmB1tTVEqOM9IbLvvwM3CP2GQoyaJxwsyrvL4Og34dnnJwW69UdIu1I7IGBycnJYuWIlRUVFzeJCLfuhDEmSOJR/iMLCwpAFH4+n16FDBwYPHuxLiQyWkpISXnj+Bb788ssm9aAbwmw2U1xcTO6+XHr17sUFF1ygHRIxvOdPQUEBsbF1beTQdJhMJiwWC/n5+RQeL6TvxX1DCvEEFtLxTsh9sEYzMRtKSEHP8Z7wTi3PsqHxWryvr06umv7vrTrTBOXrRd9WfKG9vvffnnBKva/T2OfVosd4z8TydbMxTftTSOEdedpFnnBOfZ+rPvyOR3Krk9sPvx5wGqs/WVlZPP7Y4+AR2+aC7ElJDBdvWOfZ554NacFOcXExjz36GAUFBU1+MwwEbyjjmWXPkJamc4JBHWRkZPDC8y9AMzt/6sIbMlzwpwVBh/gaD+lUVeBe+4SafdFoFk60EfzEXofjstcT0kF7UwkFz/8PWhQjjaCGdz5Ygfttz9NbsFT9oG0JHhGUyrMrooOhoKCARx5+BJrhxarn8Zyyn/KlgAZDQUEBDzzwQIsRezx2E0WRJ598ku3bt2u7dWX79u0sfmox6Px9RQpvyHD2rNlBh74aFXzlw7Uom1Y0Ubw5EHQ8rjO1l0KDp7yBbuh4rLoiQJyA8voi3Nve13Y2TuUZbUto2I9qWxqluLiY51c+Dy3kYg0VURRrLfAJlIKCApYuXcppx+kWI/ZeRFHEWelk+fLlERP9jIwMli9fTlxcXIs6f8xmM5Ik8czSZ9i3b5+2u14aFHxl307cq+c0Y7E30A8BYkF5dTYcytF2Rgc5uMkol8vF22+/zd69e1ucmIVCTU0NgURgvdjtdv669q8czDvYYu3jFf1FCxdRUlKi7Q6LrKwsXnj+hZCzp5oas9lMQUEBi59aTEFBgba7TuoVfKW8CPfKuz2bUP88xF45HbwHdV4hClB0HPebS8PO3IkGH330ERs3bGyxYhZp3lz3Jtu2bWvx9hFFEVmWWbhwYVgZKv405zBgMHjDO0uXLg0o3Fe34FdVoPzjWbVWTNixa4OWgyeev+Nt3B++pe1sVhQXF7Nm9ZqwcpLPZzIyMli/fn2zzcYJFrPZzMG8g7y57s2AhK0hnE5ni5mgDQSz2cz+3P2sW7dO23UOdQq+sms7ykfNOW5vEDnUFbnK6/c1ay//pTUvwXlywepNcXExH7z/AXFxcdqusJFlGUmSfD/ebBr/H2+f3pjNZjZt2kR2dra2Kyg+/vhj9uzZE5Enn/rso23TG6vVysYNGxud6zg3LbOqAnlquwBXldaV5tcQfuNlt+d3rQFnq1qKpvBePyBqp2UKN83HdLc6W+/DUYo82b9wVSivHyiaNE7Zm8rpP8Zjo5Cyk4I4nko3wu2PYbpjobbnHOTftYWayhAykDTnQzswrTrR6GrbjIwMVq9arW3WHe/F6o/3BtMUNxqn08k/1v+jwUJqLpeLFctXsGXLFl0FzWuHpKQkEhMT6dOnDx06dqBjx4507tyZ6upqJEnC4XCwf/9+Dnx/gKMFR/mx/EddnzK8x/Ha66+FVHsnJyeHRx95FFmndFkvkqf+jdc+F1xwgW8fhfj4eN9eAgUFBeTl5XH40GFkzwpavZBlmYSEhAbTNc8RfOW9FepEbVxjYk9wAgI+YUUCEm3QeSBCfCIkeC7wk0UoP/wXftylrmwNuqBYCMfT7AQf1UaeCpe071m3jY7thkolSBsFcTyyGzp3x7RsZ6MCHE3BD7UIWaDInqJeFovFd/EmdEigldiKiooKysvLa5VWjsQx1Ecggp+VlcWfFvxJ2xwWTqeTlJQUbrzpRlJSUujRo0ejoTRvrfjtX23no48+QpIk3WzldDoZNWoU8x+er+1qlDmz5+g6ye89X0aNGsWIkSNISkpqtOZ/cXExhw8fZvN/NrNlyxZdM4Qas01twXeUIj94NRTtDcC7JwgBOSv0wtBRCLfOh259zu6A5I9ndyR2fYH7rYfg6PEgRC3Q4/HSnATfYyOAYWMx3fwodOnRsI2+eBv36w8GIfxBHo+sqCWpb56t7axFNAU/KyuLRx5+RLcL1ou/0E+aNImrr7kai8VCTEyM72KU/UrY/vDDD2RkZPDeu+/5NreINIEIvreshB7H47XJpMmTGD9+fEgLvlwuF6WlpSxdupT9uft19faffOrJoBZlbd++nXlz5xEfH6/tCgmn00liYiL3P3A/l156aaM3QS1Op5Ndu3axetVqysrUAnl64HQ6WbV61TkVW9EKvrL+abWmfcCx+wAExBO6EQaOwnT3kqDL8iqf/h33+j+ptW4aPa4AjqcWzUTwPat4hWtmhbTaVVn/NO5/L1XLTDQougEejxdPUTNxzso6y1F7iZbgu1wu5syZo3uaoSRJtItvxw2/uyHoDUdKSkp49W+vsnXrVt28tPpoTPD1FDRJkkhOTubu39+tW3nexx97nKysLF3sJEkSw4YNY95D8wK6ibhcLu6ceicnT57U7f1/97vfMW36tKDOl7rwTiJv3rw5oM/SGLJnVfbav67Vdp2dtFXKi1B2Z3n+CuaibQh1harptiVqPfggxR5A+M2tiPPXIwwZ54lpn30gOS/wVOo0zXwT0x+WBy32AMLEhzDN3Qidu5+N++uBqBY1U44d1vY0Cfn5+ezZrY/36sUrbPPmzWPKbYHvWuWlS5cuzJ4zmxkzZ+B0OrXdUeWtt97SZaJWlmXaxbdj7ry5uok9wLyH5jFy5EhdJnTNZjPZ2dnk5uZqu+pky5Ytuor9hFsm8MAfHgj6fKkLq9XK7DmzuWHcDbqcQ6IoUlhYSEZGhrbLL0vnxEGU3d7NPfRAgVMKpplvIkx8KCQh89E7DdNDL8GFw8+GPc4HZDfExGH6w1/qrOETDMKgkerOXVVnn6p0QQbl24+bRcbOv//1b12LWnnFftbsWWEJm8ViYcyYMcycNROn03nORG80yMnJoeBoQdiC5p2onjNnTr0Tf6FitVq597576ZPaRxfRlySJzz79rNE0Tbvdzs7Mnbp8L06nk7HXjWXKlCnarrCwWCzccccdjBgxQhfRl2WZnZk7z3ktVfCrKlA+etOTDaKH4HuKkT2wJGwh8xHfGXHx+9BeZ0FrMtQtEE0LN+m332zvNEwvZkJ7m342EkH5eCWKs2kFv7i4mG+zvw1b0Lx4vdhZs2fVGesMhXHjxjF33lzdjjEYtm7dqouIAsyeMztie87abDYWL9aETUPEbDbz4YcfcuzYMW1XLXJzc3WZ5JckiREjRnDPPffo4tlrsdls3Hf/ffTr3y/sm5PZbCYzM5Ndu3bVaj8b0tm19mxKZFh44uG/morwu/u1neER3xnhvvc8seKW7Ol7bHT7Y/qJvQdhwOWYpq7Wz0aiCU4pKPsztT1RZefOnbouga+srOSuu+7STey9pKenc8UVV+gmvoGQl5fHvr37wraNJEn079+fkSP1PSe12Gw2Jtwy4RzvMxRiY2P5ePPH2mYfLpeLbVu3aZtDoqamhslTJkdE7L106dKF6667rtGnlkDZtnVbrdcygWcDi3A2+PBHViAxDdOEP4QXxqkH04ibEEbNbdmhHc8+t8J192h7dEEYfj3CgBv0s5EV+PIf2taoUlBQELbX40WSJIYOHcqYMWO0XWFjsVi49757qaqq0nZFjLKyMgoKwg/n1NTUcONNN+oycdgY119/PYmJiWF/p6Io8vkXn2ubfbhcLr766ivdvHu9w1x1MWbMGN1s89VXX9Uh+Bmvq5thhI0nTDF2SkgTtIFiGncnJKbpF7aIKoo6TzJ2er3ZKGET2xZh4kx1vYMuXj4oOz/QtkYN72KVcAUNTyjHbDYzc9ZMbZdu2Gw2br/jdl082MbQy4OVZZnExMSIhXK0dOnShdGjR4ftyYqe4mpZWd6Ek9rk5ubicDi0zUFTU1PDXdPu0jZHjPsfuF8f2zid7Nixw9emCv6+DTqFc4A4AWHsNG2rvnRLVfeyldFH0KKJrCAMuAHTZddoe3RFGDQS0q7Ux8sXBfV1mqiK5smTJ3WZkMQjbDeMu6HRxTHhcv3119OhY4ewvbTG0MuDdblcjJ8wXtscUQYMHKCLjWRZZvfu3dpmADb/Z3PYE/1e775jx47arojRv39/Xbz8mJgYdmbu9P1tUsqL/PK3w0RSEK65NyKhHC2mq8Z7PNiWhPoEJFx6ZXRsdPsidcWuTjdFJecLbVNUKC4u1sVb9k7U/uIXv9B26Y7NZuPXv/p12F5aYxQWFuriwVosFi6//HJtc0S58MIL6ZncM2xRAzh+7Li2CYDs7OywHYWamhouH3Z5VEJdXiwWC7/85S/Dto0oiuTuP5u6atJvMs6zknaMzhO19dE7TS3PoGfeeZSI+BOQB6FnXxg0WDcbKSfVcgLRxOVykZeXR0xMjLYraGRZpn+//lx88cXaLt2xWCykDUmLuEjkfJcT8h63XmRZplfvXmF7wsFis9m48MILtc1BI4oi5T+Wn1MTPi8vD1mHmjkdOnaod7FbpLBYLPTq3cu3sjtUvCEv785YJg7vPrc4VyjICqRdidCxg7YnYpiun6fmnbcUZAX6DY6Kdw+erKYrpupgI8/TX7Geu38FhizLusXvAfr06RPRLAt/evXqRXLP5LC9tIbI3JkZ9ueRZZnuSd1DKp0QLr1699Lluy0tLeXkyZO12vLz88O2vSzLtLe1JyEhQdsVcXr06KFbyMu7QE2QX5ynKP9e6rfgKpjQjt/S+Eo3wm2LMU2tu2hPJFAO7cd9e39o713S73c8AeEdH6XSCpVuTL9foi5EixJK5n9wLxrtF7IL8fg9ZRZM89eeM9kcydIKdrudSbdOOvtfwqChGiORYsniJbpVrqyrtMLYMWPD9mJlWWbo0KFcPiy6IR2Aw4cO89FHH2mbg0aSJBb8aUGtSedVL67in//8Z1i2lz1lCqbeOZU2bTQ1rSJMcXExb657M+wVwt6VwdOnT0eQF9ypKDv+BuZwyhF7Flo9/E+Ekb/VDooYSnkR7pn9PXMQ4R9/xAX/lBvTy5kIA6J4YR3KQV5yu6cgXpiCnDgQcf7r52RgRVrwrxt7nS71YZxOJ19sje48xLo31vHGG2+EJTpetILvdDq56cabwhKD8wWn08nMWTMZN26cr03Pm60lNrynqFBxVYU/ByRJEunp6cx/eD4m5XRx+Bk6sgIdbWAL/6IMBsHaFvoM1yckFXEUNZ+9Sw9tR2TpmIjQKUUfG8l2lMrobgN55MgRbVNIyLJMv/79tM0RR6+QRV0cOXIk7Mf984nKikrfv+12O+Xl5brZ3lXlwlnpxFnp9P1b+zuUn7pew79NL8rLy7Hb7Zhw6XQBx3ZHiGunbY04QofIL4TQBVmBxO7a1sgT3xkSe2pbg0cUoLwQfgp7QiAoiouLw56UxC9OHW06deqkm+ho0SM753whJiYGh8Phy4pyOBxUufQ9V0VR9H2Xdf0O5aeu1/Bv0wNRFFEUBZfLVfcWhyERnwSWyGYknENsW4jr1HLSM9t0UOvbRxsh/Eda8Ny0olgyQE9qampISkrSNkecCy64QNtkECEqKip8TzzV1dVI1S3zXI0ErmoX1dXVmKjWwcOXQTBbIC66IR0A4YIoh0haIEJHnbIvZOBMtbY1olRX6/d+cW3DLx0cLN7Ml0iEXgwPvzaxbWJ19YzPJ7w3P308/Ka0cVyUUhxbMq1a6/AdCeqTlKvlek3+Md5o0lQTfj8nampqzlnz8NNPP9X6++eMubWZ1q1b6yT4gCK51G33DOqn2rM1YQtGaQZ18Vsa7W3ttU0GEaBbt25hr0k4H5FlmY4dOmKz2TDRWr+JVqG6aTyoFkPVD9qWFocQrUVjHlq3bq1tComYmBhc1fplPQRDpDxNPVJVzwdkT+G3Hj1qh3ejnTffnOneozsWi0U/Dx9XMbjCr3cSLEpZkbapeSIK6nqBJkCpcOmTltnCKS8r1zZFhWpJv3kIf/QoN3E+IMsyAwcOJCUlxdeml6NwPlBTU+Pb48CERScP/6cfUaoic2LXS1UFnDymU2nnSCPAacDRBKJfqWMNHEt0jR0fH8+ZM2e0zUEjiiLl5dEXfJfLhavKFZHJRMODVRcViaLIHVPvqBXOMZvNmFtH91xtjjgcDkaNGuWr428S2nUN3/sTBSg9DhVNIGaHvtO2NF9igCO1txyLOI5SKDqqbQ0BBWI9E8BRpFOnTtqmkDlw4IC2KeI0tv1eOHTo0EH3G4ns2dO2Of9IkoQkSVhiLfRJ7cOrr716TnGz2NhYYi3RLQbXHPC3kSzLjB07ltlzZvv6TSToEQcU1AJdJ3/UdkQUxVmBUrBZhwyUKGEG5ZtPta2RpbwIpSw3fBvJirpXbpRXU7drp88TqOjZDEKPMsvBoEcBr/rQily4WGItWOOszfYnISGBXr17kZ6ezm233ca8efNYs2ZNnXaw2Wx07NhRN9s7nU4cDkez/pEkCWuc1Wejxx5/jNlzZtd68hHkP89XlPeXhF88TXIj/HoappnLo1cN8lAO8rQhEOet4dLMa+l46sWI6xX/QRFF1+JpTVRLZ+ItE3XxZJ1OJ88se4ahQ4dquyLGK6+8wjtvv6NLPRdtLR2Am266CacOe/3KsszCRQubpGJmMLRt25Z27dqdk4JZFytXruTDTR+GbXtZlpk0aRJpQ9LCLlccSWJiYjCbzbRt25b27dvXmbEkuN9drrhfmRO+4NdzwUYS94v3o2xa4yn8xrkC2yhRFnwUqFQwvRslG1VV4F63BPWGHk5xOc/320TVMv/44B8pLCwMW9T8qwZGA7vdzqKFi9izZ0/YokM9gj9n9hz27t0b9us7HA5e/vPLUa0kGmn0KlxXV2G2loqJPkPCf9wHtVplKbB7u7YnYigfv6TPsUebL97WtkQExVmBslUnG8kgdOp2jthHGovFostWb14OfH8gamGdI0eOcLTgaNg3qoZIS9PH64yNjeWLz6NbSTTS9OrdS9sUEjExMVE9byKJSUgdom0LnVhw/+NRbWtEcG97HyoVfbZmjBqCGsfP/lLNMIowyv5MKNJj+0pPCKrLubHSSGOxWOjeo7suomY2mzlacNS3GUSk2bd3Hz+W/xhZwR+SplsW065dUU4oiDD9+/fXxfaiKLJ3715dzsGmxkRsW+jcXZ9t8EQBDuWh7N6q7dGfz99tIemYGswCyv5PUHZF/klIeXW2mlkTVJilAXoN0rZEhW7dummbQua04zRZX2dFfK9Zu93Oxn9urDOOqidJSUm6LMASRZH8/Hxycppmo/pIYLPZSEhICPvpUBRFioqK2LFjh7arxWECEIZcH35qJpz1YDe+pO3QFfe291G+fccz76CTmEUNAVyVKF+8E1EvX/n073D0uA7evQezgOmya7StUUGvrd7wePmbNm0iPz9f26Urb657M+LePZ4noCuuuAJJhyqmMTExbPhgg7a5yXE6ndjt9pBCKnpsBI7HzqtXrdY2tzhUwR8xAYK3Zd2YBZRv31VDLpGgqgI+egukYCcgmxFmAeWLV3F/87G2Rx9O5OFe/7R+3r2kQJ8ropd9paFDhw507txZ2xwysizzt7/+TdusGwUFBbz33nsBZZKEi8ViYdDgQbqEG8xmM7n7c9m+PfJPn43hcrnYt28f695YxwvPv8CihYt44fkX2LBhwzmblTfENaOuoaoq/Lr43rTejIwMbVeT4HQ6ycrKYsOGDax6cRWvvPIKGRkZlJSUaIfWQlywYMECITYWZduz4AJMwQqEdrygZlwc3oXp0lHQTt9Nzd0vz0HZuq4B776utobwZomA0O9KhEuvqt1d7UT54Dm/hhBf/5w2Bfa8g2nsgxCj42Kmqgrcf3kCdv8HYuqykfbvxhCgSsF01xKEXgO1nQAo65eAW/KcOyG8PoCiQGsQxjyI0Kb2jaVt27bs2b2Hw4cP6+Ixi6LIsWPHiLfFc/HFF2u7w8Jut7PsmWW67rbkpaamhptvvpm2bWvbR1EUsrOz+emnnzCZwquWUl1dzeFDh7ls6GXnvE+0yMrK4oXnX2Djxo1s376dY8eOUVpaypEjR/jmm2/IzMzEJJoC+u4sFgvbtm7TxTaiKHLw4EEu6ntRk+1z4HK5ePXVV3njjTfYvHkzn2/5nIMHD7Jr1y6ys7P59ttvkd1yvbZRLWBugzB8trp4Sg9EExzPQ37wInWlp04o761AeXtNA2LfghBNcArkP47Q1UbutU+gbF6rn41kN8QJCMOv1/ZElUGDB+kqoBaLhbWvrNXVm7Xb7Sx/bjnZ2dlhpwIGQ48ePRg4cKAuoQtRFCkoKODBOQ9it0dv5bzL5SIvL4/HH3uc++65jz179uCsdGK1WtUyCX4/J0+e5PmVz7Nk8ZJGwzxWq5XRo0frMmcjiiJlZWWsWbOGvLw8bXdEsdvtZGRkcNONN/HWm29x+NBhXFUun32sViuiKFJYWMhzzz7H4489XudnVgU/ti3CL67xLGDSYfIW1LzvU+BeORNOhG8c5dO/4173OLTXSciaA2YB8nfhXjkTpTzMInBVFSjrn0Z5ewXEmfSzURUI1z/UZOEcL/3798caZ9VF1PBcvLIss3rVal1E3+l08tKal9i2bVtUQjn+eMM6et1kzGYzZWVlPPzww0GFT0Jl3759rH1lLbNnzSYzM5POXTpjNpvrvcGLoojVamXLli188P4H2u5zSBuSpusc0MG8g6xcuTIqou9yucjIyGDRwkWsWL4CWZZ94l4XoigSHx9PZmYm69atO0f0fc84Qr80hAE3eGLjOmEWUHa8jbz4lrAyd9wvzsH94u/VxT16CVmzQPDZyP3EhNBvjFUVuNc+gfuN+Z4boo7ECQgDR2hbo05ycrLudeVFUeTkyZMsX76cDRtCn6wsLi5m6dNL2bx5c9TF3kt6ejqWWIsuooafsC1auEiXG2JdFBQUsHLlShY/tZj33nsPWZaDummJosj69esbjVunpKTQv19/3W3zzNJnIprVtH37dhY/tZjVq1b7Fu/VJ/RaRFFk44aNfP/997XbFyxYsAAASxwgo3z9gXcqt9bA+mlonKAu+jlZgrLhNSg9htDrYogxNxy3rqqAn+woOV/hfugyyPoCYmogoBhcQ8dTF57xUY3h++OxUdkxlHdXAW5IughBoFEbKY4f4V+rcT9+NXyfWU/MXktj/V48q49HTMN0w/QGjyXSMXwvrWJa8dlnn+ma6mgymaiurmb7V9vZs2cP3ZK6YTabG30Pp9PJjz/+yKoXV7F06VKKioqIjY1ssa76YvgArVq1wmw2s/2r7UGJZkOIoojD4SDjwwxyc3Pp27cvFoslrE3lnU4nR48e5aknn+LFF17kyJEjVFdXq7sxBXR9n8VkMiFJEg67gyuvvFLb7aNVq1aYW5t1Tav02uafG//J0aNHubjfxcTFhb+Fpt1uJzs7m9mzZ7Pp35soKipC9NvcPFC8tiktLWXkyJG+70xQFOWsS19VgfyH4VC0V40xN0owmTKqgGAWEPpdA31HIvRNgzaxCHHt1NLKcjWU/4CyPxNl96dwfK8qhgEv2Q/mePAbH63SCo2hll4g0YYw7PcIA38JZnNtG1XY4eSPKHs+Q9nxmjo+NlAbBXM86mlhejgDYdi12s5aRLK0gj8ul4tJkybpUjumLiRJoqqqiksGXcLVV19Nt27datWWcTqd/PTTTxw+dJiDBw+SnZ2NJEm6CWxj1FVawR+n08nMGTN1KUOhxfs5r7jiCgYNHkRKSgoXXHBBQLV3SkpKKC8v59ixY+zM3ElmZiZ4POVwkWUZa5yV999vPCvwwTkP6lbmwh9JkmgX345rr72Wfv360atXr3q/o7qw2+0UFhZy8OBBPtz0Ifn5+VgsFl2+Q0mSWPfmOrp06QLnCL5nYtS9eo4nDtwYwQgIPhFBUtT9Uc1ARxvEXgByFZQXqgJmJkih9xLK8TQzwceT5SSj2ihOgHbxddso6InZII5HckP/KxGXb9P2nEO0BB9PfZS//vWvEQ2dyLKMy6VOiPlfuKfspzjtOE1NTY2vUFU0aUzw8YQBHnn4kYjZR5IkampqSElJIT4+no4dO5KUlERc2zhat25NfHw8DoeD6upqThSeoKKigrKyMkpKSigqKoqI3WRZ5rXXX/OJWn3k5eVx59Q7dVmopsX/nEnumUz3pO507NSRbt260bFjR9q0aeN7MistLaW8vJwfy3+ksLCwln30EnovDoeDF1e9SFqaWvDwHMEHkKf2UOvbN+rlByEgUMd4pfYK33MqOmrHN0ao45uZ4Nf6mwZspB3fGIGOV580xDf/C93UjRMaIpqCX1BQwKKFiyLixdaFNu4bjfesj0AE3+Vy8fLLL+tSJbIhvHapyz51tfn/1htZlnnhxRd8m3w0hJ7VS+tD9tSk91LX566rv65x4eJ0Opk7by5jxowB/0lbf0x3/8Vz8Z5zL9AZQb2peH8IVjDOdzz2iKqNVLEX/nd+QGIfbZKTk33btUUDb/w0lDhqU2CxWBg3bhydOnU6R3j1xGsPsyZlsr62SNtOu59tfYwfP54+qX10WZlcH1obaM+h+vojwZkzZ2o5CHUKvjB4OMI1szwZO5EWfYNmhaRAv+GYxt6h7Wk2XH3N1brUSDlfSU5OZvKUyU22h280kSSJfv36NTrJ7sVmszFp0iTMZvN5f/7Iskx8fDwXXnihr61OwSe2LaYb74HuA/UpqmbQMpDdYInDNPnRZunde+nSpQuTp0ymsrJS22XgYcyYMdx0800R9WSbAzU1NUz834na5gYZPnw4N4y74Zwc9fMNWZYZPXp0rYn1ugUfoFsqpj+86Cmq9jMRfXPo6WYtH0VdZDVlWaNZOc2BMWPGkJ6e3uhKy58zM2bOID09/bwVfUmSuGHcDSHtYDZ9+nRGjRp13tpGlmWSk5O5/re1V8jXL/iAMGgkpunL1ayQn4vo/yzxxO1vnI3p5nu0nY0Tp9ONMra7tqVBJk+ZTEpKynl70YaL1Wrl3vvu5ZJLLjnvbCRJEgMHDmTixOC8e3/uve9ehg0bdt45Dd5J46l3TiU5OblWX4OCDyDcPBvhtsXNN54vu9UfHY5NiNN3JWfLwCP2o6Zhum2etjMwYnUqJNW+J0JM4JNXqamp3P37u2kX367ZxmOb+rhsNhtPLX6K5OTk80b0JUmiT2ofHn/i8UZTMRvCZrMx58E5jBgx4rwRfdmTHjp7zmyGDx+u7W5c8AFMU+djmrqk+Xn6shsSUyGx7iqOQWPTrwRvy8Aj9tdMRZj2J4gP7fMLFw4Mfz8FGYQLLgJzG21PgwwdOpQ5c+ackwrXHJAkiZEjRxIfH9+kx2axWHj+hedbfHjH+x2np6ezfPnygBZ9NYbNZmPhooXnRXhHkiSSkpJ4ZtkzvjRMLQEJPoAw8aGznr5OHnV4qNsbmiY+gWniQ9rO4BFBuLDukqL64b1hNrXtqCX2pvuWNJj73hjC/9yoLhILGXUhnjDwVyEVaRs+fDj33X9fsxJ9rxd67333YmsfvjCFi9VqZcbMGdx22204nc5mY6dAkWUZURT5/T2/Z/ac2QFn5QTKjJkzmHDLhGZ1DgWD0+nkkksuYe68uQ3OaQQs+Hg9/f97S83R17PIWrDIbjilINz0KMJvblVL95qs4WUUyUBvdTVaZFDUFbOyp8REU4q+7D4bs5/1fMievY/Bvwpvu0lZLSdBUpK2J2DGjRvHbbfdhsvlavILVvIstZ8+fTo2mw2pOqy7oY+YmBhtU1BYrVam3DaFufPm4nK5WoRHK8syTqcTa5yVFStXMG7cON3FHo9tpk+fzoyZM5BluUXYBs+55nQ6ufnmm1m4aGGji8+CEnwA4Te3Ir58AAaMbgLhUtQl/zFxmGYtx3THQrU5ti3CuDDq+UsKwnX3aVv1RVag80DEV/6LMGSc+rfs1o6KPJVqGEz403uY/rA8JI9ai9AxUQ35hXQ+KGo4Z9jvEQaFt6Bqym1TeGrxUyQkJDTZBStJEp06dWL58uW+5ex6YTabEYTwF92NGTOG1994nfT0dPAcc3PDK2S9evdi5qyZvP/++42KmR6MGTOGtX9dy7Bhw6CZ2ga/40pPT+cvr/yFB/7wQEDlNM5WywyGdh0wXf4bcMfA91/CGTW8EhiBjvPiN15SoPtATDNeQRg1xX8QQqduKNtXgUsh6F27ZBBn/RkS6liyrle1TEWBtgmYRk9DSJ+AENcJ5ejXUFGlsV2Ir98YshsUEK6ahvj7pQhp6sWuG116oez5GsqOBXEueG6EHWyIM9bosjtajx49uKjvRRQXFVNQUIAoikFXYQwVSZIYNmwYM2bOoHfv3r72f/3rX5w+fTqs45BlmTbWNowdO1aXqow2m40rr7ySnj17cqLoBEUn1KqM4RyjHkiShMvlIi0tjQm3TGDy5Mlcdtll2mERxWazMeyXw0hJSeFE0QmOFRwjJiamyW2Dxz6yLDNs2DCm3jmVWyfdSocOgV83ddbSCZiqCpRDubj/NheyvgRrY0XPlHra68NzaJKi7rk79ErEJ96tNwThfu9llNX3eqpHBvDlyG44DcJdizFNna/tVdGrlo7shgsHIy7+z9njP5GH/Ny0AG1XFw3Z01OnSEa1XbIN09yNCKlDdPHq60LZtxP3/F/6qqLWf2x4ntbU79e04CPdc/+dTidbt25lxfIV1NTU6F6Uyos35nvq5ClmzprJ+Anjzwk53HTTTWFX+JRlmYSEBJavWB5WZkpd2O12cnNzWb1qNceOHSM2Njaiy/398dqvpqaGM2fOkJ6ezoRbJpCUlKTLpGy42O12Pv/8c958801KS0qjahs09qmsqGTo5UOZPn06qampAXn0WsITfH8O5eB+dw3Kf7OhyLMpwDkC1pBA+eMRqyqgXRzCkLEIN9wb0CO/+72XUV6/TxWTc96f2kJoicM0ZSHCzbP9+jVEUvC9o3ZvRdn4EkreZiiy+1ULbeymVZc9PUIqoZZZTh0Fvx6PacRNmnGRQSkvQll2J8r+j+v4DvxsL4IwaBymB56O6Kpel8vFunXr+Hrn177dm/S4YGVP+ltiYiIDBw7kjql31FvUbOyYsdqmoJFlmaSkJJ597tmICuH27dvZtnUbhw4dorCwENkzWRquvfzxihhAp06d6Nq1K1f95ip1E5cIxOf1IiMjg08/+ZSSkhLKyspAp3NJS132GTx4MFdfc3XYN3v9BN/LiTzcmVsgPxtl73tnBQyPiFGXCFNbDCSgdyrC4HEIl/4KYfDwoLxSJfM/KFvfR/nvZjh6/GxHDaonndgd4aJRCKMnN34TiYLge1F2b0X5bgcc262Kf4G9Ec9fYzM8O1QNuAEu+RVCv0GNf75IUFWBsuM/KN98jLJrLfhv2eu5CQnDf6tOtgfxvYZDSUkJ3333HTszd5Kfn+8r1RvoBevvacXExNAntQ/DLh9G2pA0BgwYoB3uw263M+nWSdrmoPGGi+Y9NC8kzy5YiouLycnJ4fChw+z/fj8H8w76PjseofP/XRde0fL+rqqqIjY2luTkZAYMHEBqaipdu3bVfa4j0uzbt4+DBw+S811OrXOJEG8A2nMrOTmZwYMH06t3L3r06NHg+RUs+gu+l6oKOFmMkn8A5ci3cGI/ypG9UHoQTtXxlu2ACwcjJKUhjLkdoWNXNaYeqiB43991Bgrz1fK9nbpBXCcES6vAXzuKgu/DUQqVDpRjh1H2bkPZ/RHk71JDM/7EAJ2BvmMReg5BuPAXkJSC0LFD4+8RDbzfwamTUHIYuvRCaJ8AcfFNdnxOp5PTp09z+PBhcr7L4fDhw/z3v/+ltES9K1liz3qYriq11kr7hPYkJyeTmJhI2pA0+vfvT7t27QLytnJycnj0kUe1zUEjSRJjrxvLPffcE1Uv2OVyYbfbOX36NPn5+Zw4cYLysnKOFx7HfspOWVkZp06e8tnNazNLrIX4+Hi6du1KYmIi3Xt0p1+/fiQlJWE2m2nfvn1UP0cksNvtVFVVcfz4cbK+zuLIkSM4HA4KCwspLyuvdS55d5w6c+YM+Nmpc5fOvvr53o1l2rZtGzH7RE7wG0EpL0JwlKLEdw4rBzziNIXg14dHQHE5ITElsBuWQcB4L+CKigrfZh7hhk/0qr/udDqZOWsm48aN03Y1C4qLi5EkSRebnS/Y7XZ++OEHysrKcDgcxMfH06ZNGxISEprMTk0m+C2G5iT4Bi0Ku93OooWLdNlWT5IkFvxpQZ3L5Q0MAqWxWUEDA4MQyc3N5cCBA2GLvSzLdOrUiTZtgis7YWCgxRB8A4MIYLfb+eD9D3RbuNOlS5d6s4AMDALFEHyDFktxcTH79u0jKyuLnJwc8vLyKCkp0Q5rEj7//HO+/vrrsL17PB5+j+QeAU0SGxg0hBHDbwwjht/scLlcfPTRR3zyySccPnSYyspK4uLisMZZ6Znck74X92XQoEENFpGKJDk5Ocx/aH7Q6Xn1IUkSs+fMrrcCooFBoBiC3xiG4Dcr7HY7L615iS1btpyT8+yf990uvh3tbe0ZOXIk1//2+qhlROTk5LDsmWWcPHlSN8EHeOfdd6KSf29wfmMIfmMYgt9s8Ga9ZGdnByR+smc1bExMDOnp6Vw7+lq6du0akdCI96njzy//GRpZkBQM3gVXCxd5CgUaGISBIfiNYQh+s2HJ4iVs3rw5ILHXIkkSNTU1DBkyhIv7XUy/fv3o3bu3LuKflZXFjh072LhhY0jH1hAOh4OX//yyrqstDX6+GILfGIbgNwu2b9/OooWLwvacvcvYzWazbxVo2pA0hgwZcs7+nw1RUlJCZmYmX277koJjBZx2nNZlgtYfSZK45JJLeGrxUxFZdWnw88MQ/MYwBL/JcblcLH5qMZmZmbqKqn8NkzNnztCqVSv69e9HamoqHRI60KFjB7p27YrVaiU/P58fy3/k4MGDZGdnU1pSSlzbuIhV4fTyxIInmmzy2eD8wxD8xjAEv8nJy8vjmaXPUFhYGFFxRXMTwK/2ibcWSjAF18JBkiTS09OZMXOG7mEig58vRh6+QbPH6XRSXFwccZHFM9lqNpuxWq1YrVbi4+OJj4/3/W02myN+HN6Q0/W/vd4QewNdMQTfoEXgX3nwfMflcjFx4kRjotZAdwzBN2j2WK1W2tva+/Lsz2ecTieXXnop4yeM13YZGISNIfgGzZ4ePXqQmJh43gu+JEmkpKQwY+YMIyvHICIYgm/Q7LFYLIy6dlTEY+dNiSRJdOrUiVmzZwWVHmpgEAyG4DdGfOcgM3PqQQYhzsjOCZXhw4dz7ehrcTgc2q4WjyRJtItvx8OPPGzE7Q0iiiH4gSLrkL3axgZmo6Z5qNxxxx2kp6efV6LvFft58+YZYm8QcQzBDwCh39XqRuHhIAGpvzS2JQwDm83GvIfmcfsdt/vy5VsqsizjdDoZNmwYq1atMhZXGUQFQ/ADQLj6NlWwQ0aBOAGhZ6q2wyBIrFYr06dPZ8bMGSQkJOB0and2b/5IkoQ1zsqkyZNYuGihsbGJQdQwVtoGgFJehHtqkhrWEYO5R3pW2kpuGDAa8fFXjVW2OlJQUMDHH3/MO2+/A6Br2YVI4K3eOWLECMbdOI60tDTtEAODiGIIfoC4//Iwyj+WQJwQxCSux7SSgmn6coSbZ2sHGOhASUkJa1avITs72xfqiUb5g0CRJAlRFElISGDylMnGRiYGTYYh+AGilBfhXjwRcr8Ec6BevgKVCsKvbsH0xHptp4HOFBQU8N1333Hg+wPs3buXsrIy8JRLiLb4e715q9VK3759ueo3V5Genm7k1xs0KYbgB8OhHOQnfwdHj3s8ferx9j0m9Yi9cP9yhI6J2kEGEcLlcnHs2DHKysr45ptv+PLLLyktKaVVq1YRrW7pFfnKikoGpw1m5MiRXNT3IlJTU6O245aBQUMYgh8kSnkR7lV3w9YPwQxotcMvcUT438cwjbvfiNs3IS6XC5fLRWFhIZmZmXy982sKCgq0w3wEejOoK0MoOTmZkSNH8j+X/w/dunUzCp8ZNDv+H20JD6GvhghHAAAAAElFTkSuQmCC;" parent="gIQvh4hmUggV0KQkSDBD-1" vertex="1">
          <mxGeometry x="310" y="-437.57" width="140" height="46.42" as="geometry" />
        </mxCell>
        <mxCell id="u1wiQ4iJeH9voT5sS1KQ-6" value="" style="pointerEvents=1;shadow=0;dashed=0;html=1;strokeColor=none;fillColor=#4495D1;labelPosition=center;verticalLabelPosition=bottom;verticalAlign=top;align=center;outlineConnect=0;shape=mxgraph.veeam.hyper_v_host;" parent="gIQvh4hmUggV0KQkSDBD-1" vertex="1">
          <mxGeometry x="459.5" y="452.5" width="58" height="63" as="geometry" />
        </mxCell>
        <mxCell id="u1wiQ4iJeH9voT5sS1KQ-8" value="vlan 4xx" style="text;html=1;align=center;verticalAlign=middle;resizable=0;points=[];autosize=1;strokeColor=#82b366;fillColor=#d5e8d4;fontSize=17;" parent="gIQvh4hmUggV0KQkSDBD-1" vertex="1">
          <mxGeometry x="530" y="409.9999999999998" width="90" height="30" as="geometry" />
        </mxCell>
        <mxCell id="u1wiQ4iJeH9voT5sS1KQ-9" value="" style="sketch=0;pointerEvents=1;shadow=0;dashed=0;html=1;strokeColor=none;fillColor=#434445;aspect=fixed;labelPosition=center;verticalLabelPosition=bottom;verticalAlign=top;align=center;outlineConnect=0;shape=mxgraph.vvd.nsx_public_cloud_gateway;" parent="gIQvh4hmUggV0KQkSDBD-1" vertex="1">
          <mxGeometry x="675.6700000000001" y="-298.11" width="104.33" height="99.11" as="geometry" />
        </mxCell>
        <mxCell id="u1wiQ4iJeH9voT5sS1KQ-14" style="edgeStyle=orthogonalEdgeStyle;rounded=0;orthogonalLoop=1;jettySize=auto;html=1;" parent="gIQvh4hmUggV0KQkSDBD-1" source="u1wiQ4iJeH9voT5sS1KQ-11" edge="1">
          <mxGeometry relative="1" as="geometry">
            <mxPoint x="891" y="-210" as="targetPoint" />
          </mxGeometry>
        </mxCell>
        <mxCell id="u1wiQ4iJeH9voT5sS1KQ-11" value="Developers" style="sketch=0;outlineConnect=0;fontColor=#232F3E;gradientColor=none;strokeColor=#232F3E;fillColor=#ffffff;dashed=0;verticalLabelPosition=bottom;verticalAlign=top;align=center;html=1;fontSize=12;fontStyle=0;aspect=fixed;shape=mxgraph.aws4.resourceIcon;resIcon=mxgraph.aws4.users;" parent="gIQvh4hmUggV0KQkSDBD-1" vertex="1">
          <mxGeometry x="846" y="-137.00000000000017" width="90" height="90" as="geometry" />
        </mxCell>
        <mxCell id="u1wiQ4iJeH9voT5sS1KQ-12" style="edgeStyle=orthogonalEdgeStyle;rounded=0;orthogonalLoop=1;jettySize=auto;html=1;" parent="gIQvh4hmUggV0KQkSDBD-1" source="u1wiQ4iJeH9voT5sS1KQ-13" target="u1wiQ4iJeH9voT5sS1KQ-9" edge="1">
          <mxGeometry relative="1" as="geometry" />
        </mxCell>
        <mxCell id="u1wiQ4iJeH9voT5sS1KQ-13" value="" style="shape=image;verticalLabelPosition=bottom;labelBackgroundColor=default;verticalAlign=top;aspect=fixed;imageAspect=0;image=data:image/png,iVBORw0KGgoAAAANSUhEUgAAAQwAAAC1CAYAAACqPsGaAAAAAXNSR0IArs4c6QAAAARnQU1BAACxjwv8YQUAAAAJcEhZcwAADsMAAA7DAcdvqGQAACyDSURBVHhe7Z17VBNn/v/fCQkEBBxBBITgBYUKYrV466LWKrJasdIu9ra2ilq3rZdqXWu3v3ptt6fbU6Xeu9tvF9vafqWy1W75trallqJYL0UtCAgqKBGRWEICQQeIye+PSZBMJmFyIwk8r3PmHH2eCUkmM+/53J7PCHQ6nQ6EXo1cReNirQr7fqrBNVUb2lvVAIBj1WoAAgBiUMEibJ8bg5ljIjCgr4T9Jwi9BAERjN5LE63B+aoG5JU3oLCisUMoDPxy/TY0rVpACADeAID0kf2xYMZgjB/ajwhHL4QIRi+l9KoC+RcbUHRFiZLa3+ErFrJ3YSwMLfSCAcbaaNMClB+WTQzDE+MjMCUu1PhFhB4NEYxehlxF48i5WuSXKnBZrmBPG2FsYXRCIAJ0QiQODcX8sRQeSQxHTHgAaydCT4QIRi+ioKweX5yuRfmNOybuBxemFgYLvXBMuy8IC/4QhrSJgxAoEbH3IvQgiGD0AkqvKpBddBPlV1S4qlRyuh9cdCkYAOOmaHWAvy/Sh/bDghmDkTomnL0ToYdABKMH00Rr8Gl+NfKLf4dCo+VlVXTGrEvCiQAQeAG+YiybGIY1s2IwJNSfvRPBwyGC0QOhaRq55+X4pqjeKE1qLfwsDDZMGhZ+XshMHYZFyUOJm9KDIILRg6BpGldu3sbe/KvIu6RCRB9vm8UCVlsYLAQioFUAKlyMT58bjSkjQohw9ACIYPQAaJpGUytw8BcZ9hVcRqB/oF1CYcA2C4ONN9CmQ8bkcKyZHQ1pWCARDg+GCIaHI1fRKCi33/3gwjGCgQ43RRrcB69MjyRpWA+GCIaHYijntiZNai12uSRcsNKwk0eEksCoh0EEwwMpvarADxd+x9dnr6L9rvN+PsdZGJ25FxTNSAjBI4mhSB09ABIJKTP3BIhgeBDV9Wp8c64ORVeUDnc/uHC4hWEEk4aVBgXg0fspUmbuIRDB8BByTtY4JU5hCedYGCy0ALxEkAYFYOGkMPx1dgwJiroxRDDcnNKrCuzNv+q0OIUlukUwDOiFIzYyEG/NiUb6xCj2HgQ3gAiGmyJX0diVV4XCikYA6HaxgNNdEjN0CozueGYE4gcHsfcguBAiGG6GYTXpxwVXAFEflwiFgW61MIzQB0YFWix7WErKzN0IIhhugqGZjTPTpNbiEgujM52qRUm3L/eACIaLaaI1kN1sQnbRTZe6H1y4zsJgc6/b14rUoRg9NJgERl0EEQwXUl2vxrHyeuSXKsx2vXIl7iMYMKrf2PCHMDwxZTCiw/xI/UY3QwTDBRjKufMv/o5TlfVuJxQGXO6ScKF3U2KjA/DCgxGkzLybIYLRjdA0jdNVKrNNd90N97IwWAgYlyQ9fgDmjB9Aun11E0QwuonKumZ8U1SH4muqLntpugtuaWEYca9pT0ZCCBY+HEWqRZ0MEQwn00RrcPjkNeSXKrq1StMRuLWF0RktAKE34OeFZRPDsOGxOJJNcRJEMJxIQVm9ycOBPAn3tzDY3AuM7kobjmUzh7N3INgJEQwnUFnXjB3fXXJI1ytX4jEWBhtWty/SlNhxEMFwIHIVjYO/yJD9SxXEPv4eKxQGPFYwOjDu9kXSsPZDBMMByFU0Tlc14ssT1z3W/eDC81wSLoy7fc0dNxDBfSUko2IjRDDsoKtnk3o6x67ov49HC4Ye/aK25OFB+MsMKVJGDySiYQM94VRwGQ0qGjtzq7Dz+LUeJxYiTQvCfLWARse4JT0BgRaUjxASHzF7hsATIhh20K7VoURFQ6low6UbTbjTroXYS8DezePwa5EhqO44no9RYvqQu8xZ0uahwiEQAfBGbGQgdj0dh3cXJCB1TDixLmyECIYj0Alxs9UL5+tpnG28CwAeJxxiH394tykRcusUgn//Fb4aBQYHe+GJ6NtYm3AH8cGeZm0ImKCnTohl0yLwn+fvx7NTh5Bl8nZCYhh2UFnXjEd3/YoKmRpAO/OMUQAiHyGiwyhE+LQDgFMb9dqL2Mcf0LRAoqgApSyFUEt3zE2Y+CD8/f2h1bRCoxXg1E0ffHNNjJvNAsBbCMBNv5c+rTptVDA2pg0jq1sdCLEwHIaOOZpCQNOuRcWVBpTJVGii77qltSH28Wc2RTnCqr5EuOKEkVh0RqMVQCTUYUYUjb8+0MK4KW1axk1xKwRAmxjwFWPXwhH48fUkTIkLJWLhQIhgOAtvAW7eEeLXmttu56aIffwhaL6Ofpf/g0j5j/DVqtAKH/ZuRmi0AjS1CdDPR4slI1qwPrGRcVPcIrYhYKwKPwmWzYyE6v0UUuXpJIhgOBMhAKEAyroW/HL9NmpbXR+dF2laIJGfxeDaw6A0dWiFT5di0RmDcMSFeuGNCWqsTaSZbIpWv6YD3SmK94QiY/xA/LwyEbsWPkAsCidCYhh2YBzDaGNPG6O/C4f5ahEZ4u+SHhh+LTImoMnDokCnGEZbm/nvFuitQ22LED9c0eA3VV/cvKP/Xs7+emR5u0sggmEHVgkGwNwRtTpAKECYz11EhvgjUOLl9KCoX4sM/ooy+GoU8EErL7EAT8EAAJGQ+fxXG+7ihCIQP8u99RWiAscHRgUioLUdyfHhSBs3AI+MCSeZj26ECIYdWC8YBgzCAVDBfhjmC6cIh3ebEn1VFfBTV1klFAb4CoYBkVAHjVaAy41inLwhxrFbIiYV6+0AN0UvFNLwIGSMoTB9LHlSmitwtuFI4ISxMqAFlLdu43w93RHfsDcwKvbxh0jTggBVJULrfoKfugoArBYLWzBkU+4LbsPcmDtYdF+rAwKj+noKABmTB2HPcyOw5olRRCxcBBEMl2FIwwqgadWiQqbApRtNNqdhxT6MWS5WlCOo7jiCFEVm06TORKMVQKNlsilJA2lkjLyNRSPbGIFs01kXFBWIAIgRK/XHwRfH4J35pErT1RDBcDl64YA+DXvd+jSsIU06QPYdQuTH4atxfQtAtnC892ATHo4Wdqrf6Oq7eQO+YqyfG41vV45D+sQo0kXLDSCC4TbcEw7lrds4Vq3G2UbG2jAnHAargrr+I8Jrv3ULoWDTWTjmRyuZNGyADmgTmXFTvIE2MdJH9seF1yZiy5/iSFDTjSCC4XbohUMf3zh6udmsmyKRn8Wg6v9FP3U5e8rtMAjHA6Ft+PuDzVg0Ug2Rj/BetagWzCIxqT++XjcOB199kDxX1Q0hguGuCPWbFvi1qgVlMhXutDO3ZL8WGaTXDiFccQLopoCmo2hqY4RvRhSNd8aqMH3IXYjEQkhD+mH93Ghc/PvDpKWeG0PSqnZge1rVWgSM7+8txIMSGeLok0A3CIW1aVVrMdRv1AvC8OjDE4lF4QEQC8Mj0DGrQwVeENINQDeIRXeg0QogFPlgSkxfRIf5sacJbggRDILLaVbfYQ8R3BQiGAQCgTdEMAgEAm+IYBAIBN4QwSAQCLwhgmEHYqEAEX2YhVEEQm+ACAaBQOANEQwCgcAbIhgEAoE3RDAIBAJviGAQCATeEMEgEAi8IYJBIBB4QwSDwIm6WYU2uoU97PFU1jVj+b6zKL3qft3JPAEiGAQTqL4B2LJlCxYtWgR/Px94e3vD29uzC9SaaA3ez61E8rtnsPsnGXuawBMiGAQAgFgkBNU3AHMfTcXOnTuRkJAAiqKQnp6OxDGjOoTD02iiNcg5WYNBf/sBq/dfhKyhBfB1/SMrPRUiGARQfQPwwNgJWLt2LdLT09nTSEhIQHJyMoZHD0YQFeARwtFEa1B6VYHFO85g3vvnoWzQAN7tgICz8zCBJ0QwejFU3wBMmPggnnrqKSxZtABRUVHsXTqgKApJSUkYP3682wtHdb0a/86rwsiNx5Bz4XfAW+PkFoq9ByIYvZThw4ZidupczH/mSSQlJUEi4ffMj6ioKCQmJmLUqFEIC2WePuYuwlFdr8Yn+Vew9F+/YfUXFfrRNsc/37UXQwSjlxHSPwhzH03FwoULMfOPyaAoir1Ll0gkEsTExGDihLF4cMJY9A/qy96lWzHEKd7MKceCrAvIu6RghEKnYe9KsBMiGL0EsUiICRMfxAsvvIDU1FSL7gdfKIpCQkICJk2ahPgRMS7JphSU1WPrF8V4Jfsysk7dBHR3ifvhRIhg9AKGDxuK1atXY/4zTyImJoa3+8EXiqKQmJiIaVMnIyw0tFuEo7pejQ3/KcMrX1zDlh9lkN1qJO5HN0AEowdD9Q3An/88HytXruxIkzoLiUSCqKgoTH1oEv4wcZxT07Cf5F/BrB1n8OZ/L6HosoyxKsiZ3C2Qw9xDmTzlIaxdu9bmOIWtGOIbhjSsI62NgrJ6TN/yPRZkXUDFNQUToxCCWBXdCBGMHoRYJMTwYUPx6to1WLokwyFxClsxpGHTHp2NsNBQBFEB7F14U12vxvJ9Z/HQO6dx9HJrJ6EgdDfksPcAxCIhQvoH4fHHH8eGDRuQkJDA3sVlUBSFmX9MxqhRo6yu3ZCraOw+cgkPvXMau49cB9BOApouhgiGhxPSPwhTpk7Hhg0bkJqayp52G2JiYpCamorEMV0LRxOtQUFZPZ7eXYTln1+ETNHMVGkS18PlEMHwUEL6B+HhqVOQkZGBhc/9uVvjFLYikUhMyszZFJTV4/UDxXhoRxGOXlQwVgWpp3AbyNPb7aC6Xo0lH/2mP7GdbSoLAK0Oj/S/gT+N6oPY2FgkJiY6PEXandTU1EAmY1aOUhEjkH+xAW98dxnKuhbAR+wcoRCIAF8xLrxGnhZvC8TC8BS0Ooh8hAgOH4Tk5GSryrndlaioKAwfmYiCShU2fVGB5f9bBqWiDfAWOEcsCHZDBMOtEQBtjAEY5qvF6FAJalsl+J8zahSU1YOmafYLPIqCsnq8/fl57C2WMIvEdHeJULg5RDDcFS2ANi1EfbwwNtIPwwcGwlcsRPtdHfKLZdiZW4W3/68KlXXN7Fe6PYauV/M/LMX2k/WkStODIILhdggALSDyEYIK74MHI/0QKPFi74T6liYUVjTixaxi7D5yyWOsjd1HLmHCu8ex+2gtIxSkpsKjID+V26B3P7Q6UCF+eDDSDw/0Y4Si/S73nbe9VY32VjW+PCvH7G1FyD1Xx97Fbcg9V4d+q7/F8n3lUDbcYSwKcvZ5HOQncwuYDEhYgA5jo7oWCjYG4fhrzsWOBrfuYnFU1jVj0e4zmPOPM/e6XhHXw2MhguFKtAAggEgsABXihzhpXwRKvHgLBZsBojaU37iDF7PO4KN8mUvjG9X1aryfW4nYzceYZeek61WPgAiGK9DqNyFABftidKgED/RjhMJWsTDQ3qoGAHx5Vo53vryInJM1kKu6z9qQq2jjrld3DOXc9n0vgntABKNbYQKaEDJp0rH6OIUh++FI2lvVuCxXYO9RGbYcKkNBWT2aaOelLJtoDXLP1eG1/SVYcKBC3/WKVGn2NIhgdBfae8VXhjSpPe4HX9pb1SiuvoWduVX4d14VCsrq2bvYjaHr1UuflCPr2DXgNk2sih4KEQxno3c/RD7CjuyHr5g57M4Wi87UtzThsxNXsO+nGuw+cgnV9YzrYg+G1aQdXa8UzUyVJhGKHgsRDGfSpmPiFCF+GB0qQUKgaw+3r1iIy3IFvjwrx9ZvK5FzssYmN4WmaeScrMGyf57D8sOdul4R96PH49ozuKeityrCAnQYG+mHhEBhh1XhDhjclL1HZXj9QLFVbkrpVQVe+qgE8/ZdQE6pnHE/hCBWRS/Bfc7inoCWsSpEPkLEDgrqSJO6K+2tapTfuIPNhy9jw3/KLLopchWN5fvOYuQ7J5k06W1ab1EQoehNEMFwFIY0qb6cO8Kn3SFpUmdjKPoqrGjEko9+wyf5V4zclCZag0/yr2DsphNM1yuSJu3VEMFwEJ3TpOjmgKYjMAjHzu8rseqjcygoq0fpVQUe23YKCz4ovdf1isQpejVEMOwkSCSENLhPt6VJnY2vWIhrqja8kX0eIzf8xDQH8tb0EKEQADohpL6e3UfElRDBsIPgvhKsSB2KhZPCIPYSoIm+y97FI2lvVUPsJYBILAS0PcX98AYEXkgf2R/bnhwGaVggewcCD0iLPgcgV9E4XdWII7/VofzGnY7ybE9G7CVAwbUWaFq1nn1bEYgAnRCxUn+smByJGfeHISbctJcogR9EMBxIdb0ax8rr8XHBFUDUx6OFo2cIhjfg54UNfwjDE1MGIzrMz+PbGroaIhgOhqZp1Kk0yDpeg2+LriHQP9AjhcOzBcMbaNNh2qhgbEwbhtFDgxEoEbF3ItgAEQwn0URrcL6qAft+qsGJG2oMEHnW0m6PFAyBCGgVgAoXY/vcGKRNHESEwsEQwXAyTbQGh09ew9en5VBotB5jbXiWYAgAiAGBFsselmLDY3EY0Je4Hs6ACEY3IVfR+PxYDQrLGjxCODxDMASAwAvwFSMjIQRrZkeTZ404GSIY3UzpVQW+KLiKsputqG9pYk+7De4tGExLQ3iJMC22P16cJkX6RNc9eLo3QQTDBTTRGhSU33LrNKz7CgbjfiQPD8LsMSF4ZnIUcT+6ESIYLkSuonHkXC3ySxW4LFewp12K2wmGQAS0tkMaHoSMMRSemDKYuB8ugAiGG1B6VYH8iw0ouqJESe3vbrEU3n0EQx/Q9PNCRkIIHv9DJKaMCCHZDxdBBMNNMKRh88obUFjRCHRq6OsK3EIw9FWa0+4LwovTpJgyYgBxP1wMEQw3w1Bm/uWJ67imanOZaLhWMO5ZFZmpwzB33EAMCfVn70RwAUQw3BS5isbBX2TI/qUKYh//bhcO1wmGNwAgY0IY1syOJuXcbgYRDDenul6Nrd9WIu+SChF9vLtNOLpdMDpVaX763Gikjgln70FwA4hgeAgFZfXY91NNt7kp3SYYWgBCb0iD+2DdH6VYNnM4ew+CG0EEw4MwlJnnlyqcLhxOF4xOQvHo/RTWzIohcQoPgAiGB1JZ14xviupQfE3ltPoN5wmGcTn343+IJO6HB0EEw0OhaRqnq1ROS8M6RTAETO1EevwAzBk/ADPHRJA0qYdBBMPD6dzt61RlvcP6bzhUMPRVmrHRwXjhwQg8khhOul55KEQwegiGbl/5pQqHVIs6RjDuLTvfMF1Kul71AIhg9CBomkZNYzu+KarD18W3ADvcFLsFQ29VpD8QgRWpQ3FfRF/ifvQAiGD0QJpoDWQ3m7A3/6rNq2FtFgx9PYU03B9vzR1E4hQ9DCIYPZgmWoPvz9/A3u8vQijog1YNf+GwTTC8O7pekTRpz4QIRi/AUGb+5Vk5wNNN4S8Y+jSpToj0kf2x6YlYsuy8B0MEoxdRelWBvflXUS/vuttX14Jxr+tVbGQgXp8RheemRrN3IvQwiGD0QnLP1SHv5DWUNN5Fk7qJM6NiUTC0ALxESBwSjkcS/LE8eSiJU/QSiGD0Ujp3++IqM+cWDMaqkIb0w6P3U3hifASmxIUavY7QsyGC0csx1+3LWDCMu149khiKlNEDSderXggRDIJRt6/8YhnEPv6ApoURjJa7gLcPkocH4dnJYZg8IpRkP3oxRDAIHbAfKn30oqKj6xUp5yaACAaBiyZag0/zq1F0RYk1s6MhDQsk7gcBIIJBMAdN02iDiAgFwQgiGAQCgTfsDDuBQCCYhQgGgUDgDREMAoHAGyIYBAKBN0QwCAQCb4hgEAgE3hDBIBAIvCGCQSAQeEMEg0Ag8IYIBoFA4A0RDAKBwBsiGAQCgTdEMAgEAm+IYBAIBN4QwSAQCLwhgkEgEHhDBINAIPCGdNwiEAhdolQqIZPJiGAQCATzKJVK7NixA1evXsXgwYOJYBAIBG6USiX+/e9/AwBiYmIgl8tJDINAIHAjl8uhVqsxY8YMnD17FsePHyeCQSAQuGltbYW/vz+kUimUSiVqa2ttEwylUgmlUomamhoolUrQNM3ehUAgeDg+Pj5Qq9WQy+WIjIzEgNBwfjGMyspKVFZWQi6X4/r161AqlWhvbwcAiMViUBTF/MEBAzBq1ChERUWx/4QRNE2jqKgIdXV17CkkJyeDoij2MG+USiVOnvoV6mal0bhEIkFycjIkEonROAAUFhZyfhY+SCQS9OvXDyEhIYiKiuL8+3yoqanB6dOn2cN24x9AYeKEsRaPaUlJCYrOFcPfz4c9xQv/AAoRA0MxfPhwm78/X3LP1YFuZc49LiQ+YkwZEWL3A5jkKhoXa1WQN7Wyp3gj8REj0EeI+yL6YkBf248Ln++cOiacPdxBZV0ziq81sodNuE23I23ioI5jp1Qqsf/zbCh+r8f06dMhlUotC0ZhYSF+/PFHnDt3DkVFRZDJZOxdjIiLi8MDieMwZvQopKamIiYmhr1LBzk5OZg3bx6kUmnHWHNzM1avXo0NGzYY7WsNOTk52LhxI5qbmzvGmpub8dhjj3UEcNisWLEChw4dglBok8GFsLAwREREIDIyErEjRuLR1FldiiabI9/lYdbMGUbHw160Wi3GjRuHLVu2ICEhgT0N6MX7888/x+LFi41EpU+fPryPR0BAACIjIxETE4MxY8bg8ccftyhQtlJQVo9XvrgGuUrNnjLi25dHI35wEHvYKkqvKrDpiwqcqrvDnuLNgL7+6OfVDspHiLgwH4xLCLd4YZtj+tuFuHTLvHA1oxWNmbPYw4Be+F7bX4K8y/euB3P4+Qlwev1kI7GtqanBf3O/heL3egT1D+UWjJqaGuzbtw/Z2dkoKytjT/MiKSkJixYtMnvyKJVKrF+/Hrt27WJP4fjx40hKSmIPd0lJSQlefPFFFBYWsqfQ2NjI+TkAYNGiRcjKymIP2wRFUYiPj8eSpS9i4XN/Zk+bJTc3F3PmzGEP201SUhL27t3LSzAcQUREBMaNG4e/vLAMM/+YzJ62i1V7T2L7L7cAmL/bok2EZTMj8d5TcXZZO6VXFVj1aTnyLiksv58ltJ0uLS8RpEEBSB4WgNcev8+qB1vf9/9+QoVMDWjbAKGANSsGFSziFIwmWoOtXxRjy4/6G73uLnsX5jMKvSEN7mNWaGmahlwuB03TpjGMwsJCPPPMM9i4caPNYgH931m8eDFWrFwFpdLYPYD+wlq6dCnnHfXpp59mD3WJUqnEoUOHOMXi4MGDZsXC0SiVShQWFiJjwXxs27aNPd3t9OnThz3kVGpra3H48GHMmjkDOTk57GmbKSirx/F6IXPRQGd+89Hhn8euwQ5Pwpiu3s/SJtTXUgsB6DSQ3WpE1qmbiN18DLnnbHCBhTB9DwscPnkNW07cZIRCp+F4rQ7wEgECLfY/H88pFtC73VFRUYiJiTEWjNzcXKSmpnJedJ2hKAoRERGQSqVdXoj7P/0Y/fr1Q2VlJXsKCQkJnBeVTCbjHLfEyVO/YuPGjexhzH92AdLT09nD3cKbb77p0IvGFlpaWthD3ca8efNw5Ls89rBN5JU3oKi6juMOy0KngabFC7vyqtgzrkcIAG3AnXbM+ccZ20SDJ7nn6vDGV9eAO+0WhIU5lh9njMSUuFD2JCcdLklhYSGefvppzjiFVCpFYmIiJk+ejAkTJiA+Pr5DKAwloz8fO4EffzjCGetIS0tDVlYWp7golUps2bIFmZmZRuMUReHUqVMW4yAGampqMGvWLBOLSCqVori4mPN9O8N2SSIiIrB06VJMnz7daD8u6urqcOLECZw+fZpTaFNSUpCdnd3lZ+BySVJSUhAfH280Zg3t7e0YMmQI0tPTzcZUzLkky5cvx+zUudC0W86A0TSNsrIyfP/99ygtLeW0Ji25g3zocA8qbvJb/SRgfHDVP2fbHPy0+j2thnEDfn5tPIaE+rMnjehwSdDGngLgbeKSGLtTXK8BIxYCL2TOG4FFyUN5HyeBTqfT1dTU4Pnnn8f333/PnkdaWhoWL16M1NRU9hQnubm5yP4iB/s//RgAOoKYlk6YwsJCrFu3zuSCm//sAnz4rw8s+qI0TePdd9/ltC6+PfIDLz+aLRhxcXH4xz/+wfs7Q59J2rlzJ/bv32900UilUmzbtq1LK4dLMD766CMsWrTIaMzRmBOMgwcPdvmZO6PUlxBnZmaaiMbmzZvtCmTvPnIJyw9fAm7TFu6WnREAbSLsWjgCy2YOZ0/ygp9gCJgYgMbMZxIJ9BaRmXmBCMselmLXwgfYM0ZYIxhyFY23Pz+P7T9fB7zNWWOMWCx7WIoNj8VZlcER0jSNnJwcTrFYvXo1tm/fbtWFk5qaip073sfmzZs7ThRLYgF9YO6pZ5412e+no3nIzc01GmNTVFTEKRabN2/G1IcmsYd50dzcbHVtSUxMDNauXYupU6cajctkMhPLhy+urHFpampiD1mEoii8+uqrWL16NXuK8/fhS3W9GkVXlIDytvkLzwQd4C3AG99dZk84Di1ABfvi5aQIvPxQpMmWMXkQYgcFAQIv9ivvcVeDvEsqlF5VsGdsgqZpfH6sRi8W5lSOEYuM8QOxZlaMVWIBAMKamhqsWbOGPd5hGZgzZS1hOHlWrlxpIgLmmP/Mk0idM9dorLa2Fp999hlqamqMxg0olUrOEzQtLQ0LFy60aJk4g6ioKMyZM8fkO7PvuD0ViUSCxx57DOPGjWNPoaSkhD3Ei6JqBbJKbgE+YvYUg5Y9YKANygYNck5ynzv2IQA0OqwcE4rXnxmNLRljTbZ35ifgvfT7kB4/AIA3+w8wCAWoaLiD/IsN7BmbyD0vx+qD5fpjZU5cxUge1h9rZkd36QpxITxw4AB7DCkpKVi1apXJiW8NEonEqtdTFIUX/vI84uLijMYPHz6MnJwczjvtjh07cObMGaMxqVSKxYsX2yR0jmBgRBQCAkxTZlyfvycilUoxaZKpZVdRUcEe6hK5ikb+xd8Z60KnYU8Dfr6gQvzYo0ZkF9SyhxzAvYtR4iNCoMR0G9BXgtQx4VgwYzDg59URVzHhTjvk8q5rJCwR6idhalSy9RYV17EC4wJJg/tg/Z+Gmc2IdIWQHWyEvpDJFRdcUlKSiS8NAAcOHEBRUZHRWElJCaepu2rVKiQndx23cBbqZqVR0Rj0Ytjd1o6rkEgkiIyMZA+btRItcbFWhf/+puS2LrRAbLAvPnwyHrHSIDMXZDtyqhpRUFbPnug24gcGIH1oP0DH5SLogLsaqFq4YhN8aUf9bRpv/ucyZA0tFsUCre3Y89wI3hkRLoRsczktLQ2jRo0yGutOXnrpJROT9syZMzhw4EDHSUfTNGcQbf6zC5Camuqyi5OmaXzzzTdGLghFUfD3t97062l4S6yrB2miNcgrbzB/EXiJMDPSFymjByJ5eF+As3RaB9xpx5c/V7Mnuo0+EhEiAgRAm5nCECHjrjTRHN+RFzooG+4wwVnOoCgYF6pVgF0L77ep0rQzJrI3fcZMDBgwgD3cbUgkEnz00UfsYezatQvFxcUAgD179uDw4cNG81KpFHMftVyOzpeAgACrRaeyshJr1641qRiNj4+3KmjcGU+0TORyOaqrTS/QsAHB7CGLNKho7Dt+ExCYDVIgWb/uYeb94YwVwmVl3NXgeL3QZVaG8nY7apt1gLeZdTpa5iLnm9bkRl8kZg599autGaPOmLzNsOhol5+kCQkJ2Lx5M3sYO3fuxL5PPsN3333HnsKSJUusSgNa4saNG9i5cydWrFjR5fbscwsRHx+P2NhYzjL3RYsW2SxiFy5cQGFhIUpKSqzeDK9jW5DORiaT4dChQ+xhjB8/nj1kFpqm8dWZG5DVqbmtC3gjNjKw424ZE+bPBBe5zH6hAEXVdcgrd0xg0VpuNt5GTlWjGeETAF4iBA4IZE84jjYxMiaH4+2nHOM1GCWJ4+Li8K9//cumdRzOYPz48SZBTS4sFYbxgV2H4Qji4uKwZs0a3nUUXHUYjqCregpzdRi21IBUVlZi3bp1JtZfXFwcSktLjcYsIVfRiN30E5SKNm7BaBOb1FjsPnIJy/f9pk8nsjIEWiA5Ngy7l4zivYajyzqMNh02PDIUy+bGQeJjah3QrRoUlMvxSvZlyBTN3N9DC0hD+uGtuYPw3NRo9mwHluswLCAQYVpsfxx6ZYKdFsw9jA5Fv379EBjoRLWzEi7XhI1UKsVfXlhms1g4i82bN1t9wTkDe6xFmqah1Pc+sbTV1NSgsLAQK1asMBELAFi77nX2kEWOnKuFsq6d+yITiAAfHZ6dOsRoOCEqEIn3RXHXPQgFyKtV4YffbrJnbMdbgLd/voaxm05g0N9+wMi/FWDk3wo6/h267ijmvX/evFiAicPEBvlg8gjbg5BmETCL3fZmjHKYWIAtGO7G8OHDsXXrVvawEatWreJVzdndvPvuu8jJyel2l4CNrenc7OxsvPvuu9iyZYvFbf369UhPT8ekSZM4i//S0tLw1BN/Yg+bpYnW4O0fasxXKeqEyBg/0OQiGD00GJNCtcBdrotTB6jvoOiKEtX1lpfGW4OmXQeZohlKRRtkimajf+NOO+CtMS8W+nUcaeMG2FQP0SW6u5DdoXGyQs6esQu3dkmgT8e9/PLLnHeupKQk5OXl2XUXBYdLQlEUxo8fj4iICKP9uGhsbERlZaXZas6tW7fipZde6vIzuptL4ghSUlLw3nvvmV1az0XuuTrM+ccZwJsr6yEAIMaFLUmcdQQ5J2sYF6BBaeqWCESArxgHF45E+sSuSwa6dEnsQZ/ifPmhSGzJGGsifmzscUms+c58MBIMiqKQm5vrVoIBfXOZJYsXorbWuAjH1r4ZbNiCIZVKsWnTJl71HDRN49atW6ioqEB2drbJXTYiIgLvv/++xYsWZgQjIyMDjzzySJdiY4muOqA5SzCWL1+OpUuXWiUWADDu9W/x63WNmYvDG7FSf3y7chzaO/eaACAWClB6oxnbc6vMX+RtOrz8UCRef2Z0lyXRzhEMRvAAYENyBJbN5beOw2bBADoWue15boTdKVWwBQM87kiuoMRMYxyO3j82wRaMuLg4bN682erjUFNTg02bNpkEUNPS0rB9+3aLFy6XYOzc/QGWv/QXozFH40jBkEqlSE5OxuOPP45JkyZZHVcqKKvHQ++c1jes4fptBYCfhCmEMkNOVaP5RWp6v37/8/FdFi85XjAYFyRW2g9vzYlGymhTt8oc9gkGOkSDz/fuCpNDceLECZf73a6GXanJl6ioKGzbto2z8MzWfp22xiDsJS4uDikpKSYbu3TfQEZGBoqLi7Ft2zakpqZaLRYAsO8nQzUox8UOMOO3aeQU3zC7mRULgGli09CCvPIGOwqlOqFlMjZoE+vXi5iJu4DpbLUheTD+u3ws0idG8RYLXmj17odZ2iBraMHcD8+iss62c9uAiWBkZWWZ9LMg8IeiKDz11FNGY7W1tTaVRrfRrmt+s2bNGnz11VfIzs422goLCzkX/J06dQrHjx+3SSigb1SbVdJF+z2AEQOh/szl2syJhQGBFjuPX8PNRtt7dQLMRTotLgyZ8+/Dxy/EY9m0CO4MjQEvEbIrVKD8OMrc7UEgAhXiByrI2/wiN6BjMd6y/ym2K/ArTElJMRpQKpXIysrq9VaGPcTFmxbJqNVql1kLtmJYQMje3n77baSlpRntW1ZWhnXr1tncYWvHd5e66A7lIHQaKOva8cNvN+2wMpjVqpMifbEqNQbPTY3GroUPIGP8QPMXrU6DCpkaT+8ucux5oBMi1E+Cs69NZorDurA08i4p8OrHJTZ/d+HqV9ayx5CZmYm8PNt++M449MB4EDdqrbcmPAmJRIKsrCywbzZlZWV4681NJrGmrqisa8Znv9WbSYk6AR8d3vjuMuhWW9/vnqh1vvDeXzwGVLDIvGigDUeLG/DXA9wZNVupv01jSKg/fl43kUnjdiEaORd+x6qPztkkGsKJE8aa/PDo1I/Rlouepmnk5ubi9ddf5+zl2ZOhaRrZ2dnsYQT1D7U622Htgq3uhKIo7Ny50yReU1hYiPfeew8lVvS/+KaoDso7ltZDCGzczKC3MgrKHVujECgR4avnDd2zzLy/twa7c2ud0qdjSlwoPl40mvkPVyV6B+3IOn0DW78otlo0hBRFme2KNWvmDHz++ee8/W+aplFZWYk9e/Zgzpw5yMzMxAcffMD79e6CLYvPlEplxwI0dmpVKpVavfgKLo5h8CEmJgaZmZkm9SqHDx9GZmYmr99drqJRWNYAqM3FFATMHd1PYv1m6U7rLcAbX1+x+oLpiilxoVg/N1qfPuUSDR3QR4t5+y7YHYDkIm3iIGTOG8F0AzcrGjpAdxdbTtzEp/nVVhkFAp1Op6NpGnv27OHsvAV9WnDuY+kYHj0YISEhHatZJRIJaP0zCyzVIqxevRqrVq2ymFa0RHenVaVSKZYsWcKrCTD0jYDLysrMPsdl/rML8Pe3tlj8/lxp1fnPLsDDU6fYXK6vvt0Kfz8fjB8/3ux7m0urWrOWJCcnB88//7xJ3ItPP9dP8q/gja+ucRdbgemZ+XJSBB4YEcKas4yfRIy9R2U4etFcI1ym7+fX68Zx1id0mVbVryVZ84Rp6XUTrcHiHWeQc7bWfMUqvJE8PAifrUzsshbDclrVtAmwXEVjy6Ey7P5Jpn8WCfu46um0luWJiRG8bpIdXcOV+iauXE1pDBiebBbSP8joJLh0uQo/5x+1mF35+uuvbV7m3d2CAb3JHRAQAK3WrEwD+gyIJewp3HIEERERyM7ONlvg5gjBAIB9n3yGjAXz2cPYvHkzXn31Vc6T0fBUrqzTN7hLqK2om+Ai52QN5r1/3kzVKAB4Y9p9QfjxddNjY49gQP/6WdvPM/08OC905vste1iKt5/i/hsGrBUM6HuhvplTbv7YdmBdYVfHoaAoCitXrsTWrVvN3hHKysqw/9OPkZmZiY0bN3Zs+z/92KxYUBSFnbs/4Gzb5s4o9Y9PqK2ttbh1xSuvvGKzUDqCvn37soecwlNP/Ak7d3/AHsbGjRuxZ88e9jAA4HRVI/MIP64ncoHJACQPC4A02LZYTsrogQAlsuCatONocYPDmvB2Jn5wELY9Ocxy5kJ3F7tP3sThk9fYM3YzJNQfa2ZHI3lYf/PvD3TUaPw15yKvniFG2klRFF566SV8+OGHJsEsW0hJScH/HjiIJYsWmBWhnopUKsXXX3/Nax1JT0AikWD+M09y9jFZs2aNyXNtm2gNzpTU6e/AXJaiABBokRhN2bw4K1AiwvoZg4FWc24B01186/9dYU84hJTRA7FhulTfDYzrMzAdwV7+qpLXxWot8YODsP5PwyANCuhSNCpkaiz9rKzLuMr/B39gHSFU0pRKAAAAAElFTkSuQmCC;" parent="gIQvh4hmUggV0KQkSDBD-1" vertex="1">
          <mxGeometry x="840" y="-283" width="102" height="68.88" as="geometry" />
        </mxCell>
        <mxCell id="u1wiQ4iJeH9voT5sS1KQ-20" style="edgeStyle=orthogonalEdgeStyle;rounded=0;orthogonalLoop=1;jettySize=auto;html=1;" parent="gIQvh4hmUggV0KQkSDBD-1" source="u1wiQ4iJeH9voT5sS1KQ-15" target="u1wiQ4iJeH9voT5sS1KQ-18" edge="1">
          <mxGeometry relative="1" as="geometry" />
        </mxCell>
        <mxCell id="u1wiQ4iJeH9voT5sS1KQ-15" value="" style="sketch=0;points=[[0.015,0.015,0],[0.985,0.015,0],[0.985,0.985,0],[0.015,0.985,0],[0.25,0,0],[0.5,0,0],[0.75,0,0],[1,0.25,0],[1,0.5,0],[1,0.75,0],[0.75,1,0],[0.5,1,0],[0.25,1,0],[0,0.75,0],[0,0.5,0],[0,0.25,0]];verticalLabelPosition=bottom;html=1;verticalAlign=top;aspect=fixed;align=center;pointerEvents=1;shape=mxgraph.cisco19.rect;prIcon=firewall;fillColor=#FAFAFA;strokeColor=#005073;" parent="gIQvh4hmUggV0KQkSDBD-1" vertex="1">
          <mxGeometry x="350.56" y="-320" width="58.88" height="46" as="geometry" />
        </mxCell>
        <mxCell id="u1wiQ4iJeH9voT5sS1KQ-17" style="edgeStyle=orthogonalEdgeStyle;rounded=0;orthogonalLoop=1;jettySize=auto;html=1;entryX=0.5;entryY=0;entryDx=0;entryDy=0;entryPerimeter=0;" parent="gIQvh4hmUggV0KQkSDBD-1" source="u1wiQ4iJeH9voT5sS1KQ-4" target="u1wiQ4iJeH9voT5sS1KQ-15" edge="1">
          <mxGeometry relative="1" as="geometry" />
        </mxCell>
        <mxCell id="u1wiQ4iJeH9voT5sS1KQ-21" style="edgeStyle=orthogonalEdgeStyle;rounded=0;orthogonalLoop=1;jettySize=auto;html=1;" parent="gIQvh4hmUggV0KQkSDBD-1" source="u1wiQ4iJeH9voT5sS1KQ-18" target="u1wiQ4iJeH9voT5sS1KQ-19" edge="1">
          <mxGeometry relative="1" as="geometry" />
        </mxCell>
        <mxCell id="u1wiQ4iJeH9voT5sS1KQ-18" value="&lt;span style=&quot;font-weight: 700;&quot;&gt;Backbone VLAN 901 - 10.xx.xx.0/24&lt;/span&gt;" style="html=1;fillColor=#dae8fc;strokeColor=#6c8ebf;gradientDirection=north;strokeWidth=2;shape=mxgraph.networks.bus;gradientDirection=north;perimeter=backbonePerimeter;backboneSize=20;fontSize=11;" parent="gIQvh4hmUggV0KQkSDBD-1" vertex="1">
          <mxGeometry x="140" y="-229" width="470" height="30" as="geometry" />
        </mxCell>
        <mxCell id="u1wiQ4iJeH9voT5sS1KQ-19" value="" style="image;html=1;image=img/lib/clip_art/networking/Router_Icon_128x128.png" parent="gIQvh4hmUggV0KQkSDBD-1" vertex="1">
          <mxGeometry x="340.31" y="-180" width="69.38" height="60" as="geometry" />
        </mxCell>
        <mxCell id="u1wiQ4iJeH9voT5sS1KQ-22" value="Firewall FirePower&amp;nbsp;&lt;div&gt;Gen6 com URL na saída&lt;/div&gt;" style="text;html=1;align=center;verticalAlign=middle;resizable=0;points=[];autosize=1;strokeColor=none;fillColor=none;fontSize=12;fontStyle=1" parent="gIQvh4hmUggV0KQkSDBD-1" vertex="1">
          <mxGeometry x="402.99999999999994" y="-320" width="160" height="40" as="geometry" />
        </mxCell>
        <mxCell id="u1wiQ4iJeH9voT5sS1KQ-66" style="edgeStyle=orthogonalEdgeStyle;rounded=0;orthogonalLoop=1;jettySize=auto;html=1;" parent="gIQvh4hmUggV0KQkSDBD-1" source="gIQvh4hmUggV0KQkSDBD-9" target="gIQvh4hmUggV0KQkSDBD-27" edge="1">
          <mxGeometry relative="1" as="geometry">
            <Array as="points">
              <mxPoint x="484" y="80" />
              <mxPoint x="353" y="80" />
            </Array>
          </mxGeometry>
        </mxCell>
        <mxCell id="u1wiQ4iJeH9voT5sS1KQ-67" style="edgeStyle=orthogonalEdgeStyle;rounded=0;orthogonalLoop=1;jettySize=auto;html=1;entryX=0.025;entryY=0.51;entryDx=0;entryDy=0;entryPerimeter=0;" parent="gIQvh4hmUggV0KQkSDBD-1" source="gIQvh4hmUggV0KQkSDBD-9" target="gIQvh4hmUggV0KQkSDBD-35" edge="1">
          <mxGeometry relative="1" as="geometry">
            <Array as="points">
              <mxPoint x="484" y="80" />
              <mxPoint x="609" y="80" />
            </Array>
          </mxGeometry>
        </mxCell>
        <mxCell id="u1wiQ4iJeH9voT5sS1KQ-69" style="edgeStyle=orthogonalEdgeStyle;rounded=0;orthogonalLoop=1;jettySize=auto;html=1;" parent="gIQvh4hmUggV0KQkSDBD-1" source="gIQvh4hmUggV0KQkSDBD-9" target="gIQvh4hmUggV0KQkSDBD-69" edge="1">
          <mxGeometry relative="1" as="geometry" />
        </mxCell>
        <mxCell id="u1wiQ4iJeH9voT5sS1KQ-72" style="edgeStyle=orthogonalEdgeStyle;rounded=0;orthogonalLoop=1;jettySize=auto;html=1;entryX=0.5;entryY=0;entryDx=0;entryDy=0;entryPerimeter=0;" parent="gIQvh4hmUggV0KQkSDBD-1" source="u1wiQ4iJeH9voT5sS1KQ-19" target="gIQvh4hmUggV0KQkSDBD-8" edge="1">
          <mxGeometry relative="1" as="geometry">
            <Array as="points">
              <mxPoint x="375" y="-110" />
              <mxPoint x="483" y="-110" />
            </Array>
          </mxGeometry>
        </mxCell>
        <mxCell id="u1wiQ4iJeH9voT5sS1KQ-82" value="" style="aspect=fixed;sketch=0;html=1;dashed=0;whitespace=wrap;verticalLabelPosition=bottom;verticalAlign=top;fillColor=#2875E2;strokeColor=#ffffff;points=[[0.005,0.63,0],[0.1,0.2,0],[0.9,0.2,0],[0.5,0,0],[0.995,0.63,0],[0.72,0.99,0],[0.5,1,0],[0.28,0.99,0]];shape=mxgraph.kubernetes.icon2;kubernetesLabel=1;prIcon=sc" parent="gIQvh4hmUggV0KQkSDBD-1" vertex="1">
          <mxGeometry x="220.00460317460318" y="122" width="50" height="48" as="geometry" />
        </mxCell>
        <mxCell id="u1wiQ4iJeH9voT5sS1KQ-83" value="" style="aspect=fixed;sketch=0;html=1;dashed=0;whitespace=wrap;verticalLabelPosition=bottom;verticalAlign=top;fillColor=#2875E2;strokeColor=#ffffff;points=[[0.005,0.63,0],[0.1,0.2,0],[0.9,0.2,0],[0.5,0,0],[0.995,0.63,0],[0.72,0.99,0],[0.5,1,0],[0.28,0.99,0]];shape=mxgraph.kubernetes.icon2;kubernetesLabel=1;prIcon=sc" parent="gIQvh4hmUggV0KQkSDBD-1" vertex="1">
          <mxGeometry x="230.00460317460318" y="132" width="50" height="48" as="geometry" />
        </mxCell>
      </root>
    </mxGraphModel>
  </diagram>
</mxfile>
